<?xml version="1.0" encoding="utf-8"?>
<!-- Generator: Adobe Illustrator 16.0.0, SVG Export Plug-In . SVG Version: 6.00 Build 0)  -->
<!DOCTYPE svg PUBLIC "-//W3C//DTD SVG 1.1//EN" "http://www.w3.org/Graphics/SVG/1.1/DTD/svg11.dtd">
<svg version="1.1" id="Layer_2" xmlns="http://www.w3.org/2000/svg" xmlns:xlink="http://www.w3.org/1999/xlink" x="0px" y="0px"
	 width="992.125px" height="600.576px" viewBox="0 0 992.125 600.576" enable-background="new 0 0 992.125 600.576"
	 xml:space="preserve">
<g>
	<rect x="812.35" y="444.421" fill="#E35563" width="25.941" height="25.943"/>
	<rect x="812.35" y="482.894" fill="#D0DA28" width="25.941" height="25.943"/>
	<g>
		<path d="M850.219,461.583l0.883-1.044c1.314,1.188,2.574,1.782,4.32,1.782c1.693,0,2.809-0.9,2.809-2.143v-0.036
			c0-1.17-0.629-1.836-3.277-2.395c-2.898-0.63-4.23-1.566-4.23-3.637v-0.036c0-1.98,1.746-3.439,4.141-3.439
			c1.838,0,3.152,0.522,4.43,1.549l-0.828,1.099c-1.17-0.954-2.34-1.369-3.637-1.369c-1.639,0-2.684,0.9-2.684,2.035v0.036
			c0,1.188,0.648,1.854,3.422,2.448c2.809,0.612,4.105,1.639,4.105,3.565v0.036c0,2.16-1.801,3.564-4.305,3.564
			C853.37,463.6,851.731,462.934,850.219,461.583z"/>
		<path d="M866.438,462.43c1.277,0,2.178-0.522,2.936-1.314l0.863,0.774c-0.936,1.044-2.07,1.746-3.836,1.746
			c-2.557,0-4.645-1.962-4.645-4.861c0-2.701,1.891-4.861,4.465-4.861c2.756,0,4.34,2.196,4.34,4.934c0,0.126,0,0.27-0.018,0.486
			h-7.383C863.36,461.295,864.799,462.43,866.438,462.43z M869.157,458.217c-0.162-1.693-1.135-3.134-2.971-3.134
			c-1.604,0-2.826,1.333-3.025,3.134H869.157z"/>
		<path d="M872.989,454.111h1.387v1.566c0.611-0.918,1.439-1.765,3.006-1.765c1.514,0,2.486,0.811,2.99,1.854
			c0.666-1.026,1.656-1.854,3.277-1.854c2.143,0,3.457,1.44,3.457,3.745v5.762h-1.387v-5.438c0-1.801-0.9-2.809-2.414-2.809
			c-1.404,0-2.574,1.044-2.574,2.881v5.365h-1.369v-5.474c0-1.746-0.918-2.772-2.395-2.772s-2.592,1.224-2.592,2.935v5.312h-1.387
			V454.111z"/>
		<path d="M894.93,458.811v-0.036c0-2.629,2.053-4.861,4.771-4.861c1.764,0,2.863,0.738,3.727,1.656l-0.918,0.973
			c-0.738-0.774-1.566-1.404-2.826-1.404c-1.891,0-3.332,1.603-3.332,3.601v0.036c0,2.017,1.477,3.619,3.422,3.619
			c1.188,0,2.105-0.594,2.844-1.387l0.883,0.828c-0.936,1.045-2.053,1.801-3.799,1.801
			C896.983,463.636,894.93,461.421,894.93,458.811z"/>
		<path d="M905.083,460.719v-0.036c0-1.998,1.621-3.042,3.979-3.042c1.189,0,2.018,0.161,2.846,0.396v-0.288
			c0-1.656-1.008-2.521-2.756-2.521c-1.098,0-1.961,0.27-2.826,0.666l-0.414-1.134c1.027-0.469,2.018-0.793,3.385-0.793
			c1.314,0,2.342,0.36,3.008,1.026c0.648,0.648,0.973,1.549,0.973,2.737v5.689h-1.369v-1.387c-0.648,0.828-1.711,1.585-3.35,1.585
			C906.811,463.618,905.083,462.628,905.083,460.719z M911.924,459.999v-0.864c-0.684-0.198-1.584-0.396-2.719-0.396
			c-1.729,0-2.719,0.757-2.719,1.873v0.036c0,1.17,1.08,1.854,2.342,1.854C910.538,462.502,911.924,461.476,911.924,459.999z
			 M910.575,450.096l1.439,0.666l-2.053,1.945h-1.08L910.575,450.096z"/>
		<path d="M916.208,454.111h1.385v2.431c0.686-1.549,2.035-2.665,3.801-2.593v1.494h-0.109c-2.033,0-3.691,1.459-3.691,4.268v3.709
			h-1.385V454.111z"/>
		<path d="M923.532,450.546h1.586v1.53h-1.586V450.546z M923.624,454.111h1.385v9.309h-1.385V454.111z"/>
		<path d="M932.334,462.43c1.279,0,2.18-0.522,2.936-1.314l0.865,0.774c-0.938,1.044-2.072,1.746-3.836,1.746
			c-2.557,0-4.645-1.962-4.645-4.861c0-2.701,1.891-4.861,4.465-4.861c2.754,0,4.34,2.196,4.34,4.934c0,0.126,0,0.27-0.02,0.486
			h-7.381C929.256,461.295,930.698,462.43,932.334,462.43z M935.053,458.217c-0.162-1.693-1.133-3.134-2.971-3.134
			c-1.602,0-2.826,1.333-3.023,3.134H935.053z"/>
	</g>
	<g>
		<path d="M850.491,496.982v-0.036c0-3.565,2.664-6.518,6.373-6.518c2.287,0,3.654,0.81,4.916,1.998l-0.973,1.044
			c-1.062-1.008-2.25-1.729-3.961-1.729c-2.791,0-4.879,2.27-4.879,5.168v0.036c0,2.917,2.105,5.203,4.879,5.203
			c1.729,0,2.863-0.666,4.068-1.818l0.938,0.918c-1.314,1.333-2.756,2.215-5.043,2.215
			C853.172,503.464,850.491,500.602,850.491,496.982z"/>
		<path d="M863.342,498.639v-0.036c0-2.629,2.051-4.861,4.861-4.861c2.791,0,4.842,2.196,4.842,4.825v0.036
			c0,2.629-2.07,4.861-4.879,4.861C865.375,503.464,863.342,501.268,863.342,498.639z M871.624,498.639v-0.036
			c0-1.998-1.494-3.637-3.457-3.637c-2.016,0-3.402,1.639-3.402,3.601v0.036c0,1.999,1.477,3.619,3.439,3.619
			C870.219,502.222,871.624,500.602,871.624,498.639z"/>
		<path d="M875.545,493.939h1.387v1.566c0.611-0.918,1.439-1.765,3.006-1.765c1.514,0,2.486,0.811,2.99,1.854
			c0.666-1.026,1.656-1.854,3.277-1.854c2.143,0,3.457,1.44,3.457,3.745v5.762h-1.387v-5.438c0-1.801-0.9-2.809-2.414-2.809
			c-1.404,0-2.574,1.044-2.574,2.881v5.365h-1.369v-5.474c0-1.746-0.918-2.772-2.395-2.772s-2.592,1.224-2.592,2.935v5.312h-1.387
			V493.939z"/>
		<path d="M897.739,496.982v-0.036c0-3.565,2.664-6.518,6.375-6.518c2.285,0,3.654,0.81,4.914,1.998l-0.973,1.044
			c-1.061-1.008-2.25-1.729-3.961-1.729c-2.791,0-4.879,2.27-4.879,5.168v0.036c0,2.917,2.107,5.203,4.879,5.203
			c1.729,0,2.863-0.666,4.07-1.818l0.936,0.918c-1.314,1.333-2.754,2.215-5.041,2.215
			C900.422,503.464,897.739,500.602,897.739,496.982z"/>
		<path d="M910.645,500.547v-0.036c0-1.998,1.621-3.042,3.979-3.042c1.189,0,2.018,0.161,2.846,0.396v-0.288
			c0-1.656-1.008-2.521-2.756-2.521c-1.098,0-1.961,0.27-2.826,0.666l-0.414-1.134c1.027-0.469,2.018-0.793,3.385-0.793
			c1.314,0,2.342,0.36,3.008,1.026c0.648,0.648,0.973,1.549,0.973,2.737v5.689h-1.369v-1.387c-0.648,0.828-1.711,1.585-3.35,1.585
			C912.374,503.446,910.645,502.456,910.645,500.547z M917.487,499.827v-0.864c-0.684-0.198-1.584-0.396-2.719-0.396
			c-1.729,0-2.719,0.757-2.719,1.873v0.036c0,1.17,1.08,1.854,2.342,1.854C916.1,502.33,917.487,501.304,917.487,499.827z
			 M916.137,489.924l1.439,0.666l-2.053,1.945h-1.08L916.137,489.924z"/>
		<path d="M921.77,493.939h1.385v2.431c0.686-1.549,2.035-2.665,3.801-2.593v1.494h-0.109c-2.033,0-3.691,1.459-3.691,4.268v3.709
			h-1.385V493.939z"/>
		<path d="M929.094,490.374h1.586v1.53h-1.586V490.374z M929.186,493.939h1.385v9.309h-1.385V493.939z"/>
		<path d="M937.897,502.258c1.279,0,2.18-0.522,2.936-1.314l0.865,0.774c-0.938,1.044-2.072,1.746-3.836,1.746
			c-2.557,0-4.645-1.962-4.645-4.861c0-2.701,1.891-4.861,4.465-4.861c2.754,0,4.34,2.196,4.34,4.934c0,0.126,0,0.27-0.02,0.486
			h-7.381C934.819,501.123,936.26,502.258,937.897,502.258z M940.616,498.045c-0.162-1.693-1.133-3.134-2.971-3.134
			c-1.602,0-2.826,1.333-3.023,3.134H940.616z"/>
	</g>
	<g>
		<path d="M356.928,571.627h5.461c4.401,0,7.441,3.02,7.441,6.961v0.04c0,3.94-3.041,7.001-7.441,7.001h-5.461V571.627z
			 M362.39,582.849c2.521,0,4.221-1.7,4.221-4.181v-0.04c0-2.48-1.7-4.221-4.221-4.221h-2.38v8.441H362.39z"/>
		<path d="M372.708,571.627h3.081v14.002h-3.081V571.627z"/>
		<path d="M378.328,583.589l1.82-2.181c1.26,1.041,2.581,1.701,4.181,1.701c1.261,0,2.021-0.5,2.021-1.32v-0.041
			c0-0.779-0.48-1.18-2.82-1.779c-2.821-0.721-4.641-1.501-4.641-4.281v-0.04c0-2.54,2.041-4.222,4.901-4.222
			c2.041,0,3.781,0.641,5.201,1.781l-1.6,2.32c-1.24-0.86-2.46-1.381-3.641-1.381c-1.18,0-1.8,0.541-1.8,1.221v0.04
			c0,0.921,0.6,1.22,3.021,1.841c2.84,0.74,4.441,1.76,4.441,4.201v0.039c0,2.781-2.121,4.342-5.141,4.342
			C382.149,585.83,380.008,585.09,378.328,583.589z"/>
		<path d="M395.049,574.467h-4.261v-2.84h11.603v2.84h-4.261v11.162h-3.081V574.467z"/>
		<path d="M404.748,571.627h6.401c1.781,0,3.161,0.5,4.081,1.42c0.78,0.779,1.2,1.881,1.2,3.201v0.039c0,2.261-1.22,3.682-3,4.342
			l3.42,5h-3.601l-3-4.48h-2.42v4.48h-3.081V571.627z M410.95,578.428c1.5,0,2.36-0.801,2.36-1.98v-0.04c0-1.32-0.92-2-2.42-2
			h-3.061v4.021H410.95z"/>
		<path d="M419.348,571.627h3.081v14.002h-3.081V571.627z"/>
		<path d="M429.188,574.467h-4.261v-2.84h11.603v2.84h-4.261v11.162h-3.081V574.467z"/>
		<path d="M437.667,578.668v-0.04c0-3.981,3.141-7.241,7.462-7.241c4.321,0,7.421,3.221,7.421,7.201v0.04
			c0,3.981-3.141,7.241-7.461,7.241S437.667,582.648,437.667,578.668z M449.33,578.668v-0.04c0-2.4-1.76-4.401-4.241-4.401
			s-4.201,1.961-4.201,4.361v0.04c0,2.4,1.761,4.401,4.241,4.401S449.33,581.068,449.33,578.668z"/>
		<path d="M454.228,583.589l1.82-2.181c1.26,1.041,2.581,1.701,4.181,1.701c1.26,0,2.02-0.5,2.02-1.32v-0.041
			c0-0.779-0.48-1.18-2.82-1.779c-2.821-0.721-4.641-1.501-4.641-4.281v-0.04c0-2.54,2.041-4.222,4.901-4.222
			c2.041,0,3.781,0.641,5.201,1.781l-1.6,2.32c-1.24-0.86-2.46-1.381-3.641-1.381c-1.18,0-1.8,0.541-1.8,1.221v0.04
			c0,0.921,0.6,1.22,3.021,1.841c2.841,0.74,4.441,1.76,4.441,4.201v0.039c0,2.781-2.121,4.342-5.141,4.342
			C458.049,585.83,455.908,585.09,454.228,583.589z"/>
		<path d="M473.028,583.589l1.82-2.181c1.26,1.041,2.581,1.701,4.181,1.701c1.26,0,2.02-0.5,2.02-1.32v-0.041
			c0-0.779-0.48-1.18-2.82-1.779c-2.821-0.721-4.641-1.501-4.641-4.281v-0.04c0-2.54,2.041-4.222,4.901-4.222
			c2.041,0,3.781,0.641,5.201,1.781l-1.6,2.32c-1.24-0.86-2.46-1.381-3.641-1.381c-1.18,0-1.8,0.541-1.8,1.221v0.04
			c0,0.921,0.6,1.22,3.021,1.841c2.841,0.74,4.441,1.76,4.441,4.201v0.039c0,2.781-2.121,4.342-5.141,4.342
			C476.849,585.83,474.708,585.09,473.028,583.589z"/>
		<path d="M491.289,571.526h2.84l6.002,14.103h-3.221l-1.281-3.141h-5.921l-1.28,3.141h-3.141L491.289,571.526z M494.53,579.768
			l-1.86-4.541l-1.86,4.541H494.53z"/>
		<path d="M502.288,571.627h2.841l6.562,8.621v-8.621h3.041v14.002h-2.621l-6.781-8.901v8.901h-3.041V571.627z"/>
		<path d="M518.227,571.627h3.081v14.002h-3.081V571.627z"/>
		<path d="M528.068,574.467h-4.261v-2.84h11.603v2.84h-4.261v11.162h-3.081V574.467z"/>
		<path d="M540.768,571.526h2.841l6.001,14.103h-3.221l-1.279-3.141h-5.922l-1.28,3.141h-3.141L540.768,571.526z M544.009,579.768
			l-1.86-4.541l-1.86,4.541H544.009z M543.37,567.186l2.62,1.141l-2.721,2h-2.32L543.37,567.186z"/>
		<path d="M551.767,571.627h6.401c1.781,0,3.16,0.5,4.081,1.42c0.78,0.779,1.2,1.881,1.2,3.201v0.039c0,2.261-1.221,3.682-3,4.342
			l3.42,5h-3.601l-3.001-4.48h-2.42v4.48h-3.081V571.627z M557.969,578.428c1.5,0,2.359-0.801,2.359-1.98v-0.04
			c0-1.32-0.92-2-2.42-2h-3.061v4.021H557.969z"/>
		<path d="M566.368,571.627h3.08v14.002h-3.08V571.627z"/>
		<path d="M572.327,578.668v-0.04c0-3.981,3.141-7.241,7.461-7.241c4.322,0,7.422,3.221,7.422,7.201v0.04
			c0,3.981-3.141,7.241-7.461,7.241S572.327,582.648,572.327,578.668z M583.989,578.668v-0.04c0-2.4-1.76-4.401-4.24-4.401
			s-4.201,1.961-4.201,4.361v0.04c0,2.4,1.76,4.401,4.24,4.401S583.989,581.068,583.989,578.668z"/>
		<path d="M588.887,583.589l1.82-2.181c1.26,1.041,2.58,1.701,4.182,1.701c1.26,0,2.02-0.5,2.02-1.32v-0.041
			c0-0.779-0.48-1.18-2.82-1.779c-2.82-0.721-4.641-1.501-4.641-4.281v-0.04c0-2.54,2.039-4.222,4.9-4.222
			c2.041,0,3.781,0.641,5.201,1.781l-1.6,2.32c-1.24-0.86-2.461-1.381-3.641-1.381c-1.182,0-1.801,0.541-1.801,1.221v0.04
			c0,0.921,0.6,1.22,3.02,1.841c2.842,0.74,4.441,1.76,4.441,4.201v0.039c0,2.781-2.121,4.342-5.141,4.342
			C592.708,585.83,590.567,585.09,588.887,583.589z"/>
	</g>
	<g>
		<path d="M104.041,149.695v5.461c0,4.401-3.021,7.441-6.961,7.441h-0.04c-3.941,0-7.001-3.041-7.001-7.441v-5.461H104.041z
			 M92.818,155.156c0,2.521,1.7,4.221,4.181,4.221h0.04c2.48,0,4.221-1.7,4.221-4.221v-2.38h-8.441V155.156z"/>
		<path d="M104.041,165.475v3.081H90.038v-3.081H104.041z"/>
		<path d="M92.078,171.095l2.18,1.82c-1.04,1.26-1.7,2.581-1.7,4.181c0,1.261,0.5,2.021,1.32,2.021h0.04c0.78,0,1.18-0.48,1.78-2.82
			c0.72-2.821,1.5-4.641,4.281-4.641h0.04c2.541,0,4.221,2.041,4.221,4.901c0,2.041-0.64,3.781-1.78,5.201l-2.321-1.6
			c0.86-1.24,1.38-2.46,1.38-3.641c0-1.18-0.54-1.8-1.22-1.8h-0.04c-0.92,0-1.22,0.6-1.84,3.021c-0.74,2.84-1.76,4.441-4.201,4.441
			h-0.04c-2.781,0-4.341-2.121-4.341-5.141C89.837,174.916,90.578,172.775,92.078,171.095z"/>
		<path d="M101.2,187.815v-4.261h2.84v11.603h-2.84v-4.261H90.038v-3.081H101.2z"/>
		<path d="M104.041,197.515v6.401c0,1.781-0.5,3.161-1.42,4.081c-0.78,0.78-1.88,1.2-3.201,1.2h-0.04c-2.26,0-3.681-1.22-4.341-3
			l-5.001,3.42v-3.601l4.481-3v-2.42h-4.481v-3.081H104.041z M97.239,203.716c0,1.5,0.8,2.36,1.98,2.36h0.04c1.32,0,2-0.92,2-2.42
			v-3.061h-4.021V203.716z"/>
		<path d="M104.041,212.115v3.081H90.038v-3.081H104.041z"/>
		<path d="M101.2,221.955v-4.261h2.84v11.603h-2.84v-4.261H90.038v-3.081H101.2z"/>
		<path d="M96.999,230.434h0.04c3.981,0,7.242,3.141,7.242,7.462c0,4.321-3.221,7.421-7.202,7.421h-0.04
			c-3.981,0-7.242-3.141-7.242-7.461S93.018,230.434,96.999,230.434z M96.999,242.097h0.04c2.4,0,4.401-1.76,4.401-4.241
			s-1.96-4.201-4.361-4.201h-0.04c-2.4,0-4.401,1.761-4.401,4.241S94.599,242.097,96.999,242.097z"/>
		<path d="M92.078,246.995l2.18,1.82c-1.04,1.26-1.7,2.581-1.7,4.181c0,1.26,0.5,2.02,1.32,2.02h0.04c0.78,0,1.18-0.48,1.78-2.82
			c0.72-2.821,1.5-4.641,4.281-4.641h0.04c2.541,0,4.221,2.041,4.221,4.901c0,2.041-0.64,3.781-1.78,5.201l-2.321-1.6
			c0.86-1.24,1.38-2.46,1.38-3.641c0-1.18-0.54-1.8-1.22-1.8h-0.04c-0.92,0-1.22,0.6-1.84,3.021c-0.74,2.841-1.76,4.441-4.201,4.441
			h-0.04c-2.781,0-4.341-2.121-4.341-5.141C89.837,250.815,90.578,248.675,92.078,246.995z"/>
		<path d="M92.078,265.794l2.18,1.82c-1.04,1.26-1.7,2.581-1.7,4.181c0,1.26,0.5,2.02,1.32,2.02h0.04c0.78,0,1.18-0.48,1.78-2.82
			c0.72-2.821,1.5-4.641,4.281-4.641h0.04c2.541,0,4.221,2.041,4.221,4.901c0,2.041-0.64,3.781-1.78,5.201l-2.321-1.6
			c0.86-1.24,1.38-2.46,1.38-3.641c0-1.18-0.54-1.8-1.22-1.8h-0.04c-0.92,0-1.22,0.6-1.84,3.021c-0.74,2.841-1.76,4.441-4.201,4.441
			h-0.04c-2.781,0-4.341-2.121-4.341-5.141C89.837,269.615,90.578,267.475,92.078,265.794z"/>
		<path d="M104.141,284.056v2.84l-14.103,6.001v-3.221l3.141-1.28v-5.921l-3.141-1.28v-3.141L104.141,284.056z M95.899,287.296
			l4.541-1.86l-4.541-1.86V287.296z"/>
		<path d="M104.041,295.054v2.841l-8.622,6.562h8.622v3.041H90.038v-2.621l8.902-6.781h-8.902v-3.041H104.041z"/>
		<path d="M104.041,310.994v3.08H90.038v-3.08H104.041z"/>
		<path d="M101.2,320.834v-4.26h2.84v11.602h-2.84v-4.261H90.038v-3.081H101.2z"/>
		<path d="M104.141,333.535v2.84l-14.103,6.002v-3.221l3.141-1.28v-5.921l-3.141-1.281v-3.141L104.141,333.535z M95.899,336.775
			l4.541-1.859l-4.541-1.861V336.775z M108.481,336.136l-1.14,2.62l-2-2.721v-2.32L108.481,336.136z"/>
		<path d="M104.041,344.533v6.402c0,1.78-0.5,3.16-1.42,4.08c-0.78,0.781-1.88,1.201-3.201,1.201h-0.04
			c-2.26,0-3.681-1.221-4.341-3.001l-5.001,3.421v-3.602l4.481-3v-2.42h-4.481v-3.082H104.041z M97.239,350.735
			c0,1.5,0.8,2.36,1.98,2.36h0.04c1.32,0,2-0.92,2-2.42v-3.061h-4.021V350.735z"/>
		<path d="M104.041,359.134v3.081H90.038v-3.081H104.041z"/>
		<path d="M96.999,365.094h0.04c3.981,0,7.242,3.141,7.242,7.461c0,4.321-3.221,7.422-7.202,7.422h-0.04
			c-3.981,0-7.242-3.141-7.242-7.462C89.797,368.194,93.018,365.094,96.999,365.094z M96.999,376.756h0.04
			c2.4,0,4.401-1.761,4.401-4.241s-1.96-4.2-4.361-4.2h-0.04c-2.4,0-4.401,1.76-4.401,4.24S94.599,376.756,96.999,376.756z"/>
		<path d="M92.078,381.653l2.18,1.821c-1.04,1.26-1.7,2.58-1.7,4.181c0,1.26,0.5,2.021,1.32,2.021h0.04c0.78,0,1.18-0.48,1.78-2.821
			c0.72-2.82,1.5-4.641,4.281-4.641h0.04c2.541,0,4.221,2.04,4.221,4.901c0,2.04-0.64,3.78-1.78,5.201l-2.321-1.601
			c0.86-1.24,1.38-2.461,1.38-3.641c0-1.181-0.54-1.801-1.22-1.801h-0.04c-0.92,0-1.22,0.601-1.84,3.021
			c-0.74,2.841-1.76,4.441-4.201,4.441h-0.04c-2.781,0-4.341-2.121-4.341-5.142C89.837,385.475,90.578,383.334,92.078,381.653z"/>
	</g>
	<g>
		<g>
			<path d="M162.482,503.839v-0.036c0-3.529,2.107-6.518,5.348-6.518c3.241,0,5.293,2.952,5.293,6.481v0.036
				c0,3.529-2.088,6.518-5.33,6.518C164.535,510.32,162.482,507.367,162.482,503.839z M171.647,503.839v-0.036
				c0-2.755-1.513-5.222-3.854-5.222c-2.358,0-3.835,2.413-3.835,5.186v0.036c0,2.755,1.513,5.222,3.871,5.222
				C170.188,509.024,171.647,506.594,171.647,503.839z"/>
		</g>
		<g>
			<path d="M151.448,391.882l4.573-4.033c1.927-1.729,2.629-2.7,2.629-3.961c0-1.477-1.17-2.413-2.539-2.413
				c-1.44,0-2.377,0.757-3.385,2.161l-1.044-0.756c1.135-1.693,2.323-2.684,4.538-2.684c2.269,0,3.907,1.513,3.907,3.565v0.036
				c0,1.836-0.972,2.971-3.187,4.897l-3.367,2.989h6.68v1.296h-8.805V391.882z"/>
			<path d="M162.482,386.715v-0.036c0-3.529,2.107-6.518,5.348-6.518c3.241,0,5.293,2.952,5.293,6.481v0.036
				c0,3.529-2.088,6.518-5.33,6.518C164.535,393.196,162.482,390.243,162.482,386.715z M171.647,386.715v-0.036
				c0-2.755-1.513-5.222-3.854-5.222c-2.358,0-3.835,2.413-3.835,5.186v0.036c0,2.755,1.513,5.222,3.871,5.222
				C170.188,391.9,171.647,389.47,171.647,386.715z"/>
		</g>
		<g>
			<path d="M157.066,271.534h-6.644l-0.36-1.026l7.13-8.679h1.243v8.517h1.962v1.188h-1.962v2.989h-1.369V271.534z M157.066,270.345
				v-6.5l-5.293,6.5H157.066z"/>
			<path d="M162.482,268.257v-0.036c0-3.529,2.107-6.518,5.348-6.518c3.241,0,5.293,2.953,5.293,6.482v0.036
				c0,3.529-2.088,6.518-5.33,6.518C164.535,274.738,162.482,271.786,162.482,268.257z M171.647,268.257v-0.036
				c0-2.755-1.513-5.222-3.854-5.222c-2.358,0-3.835,2.413-3.835,5.186v0.036c0,2.755,1.513,5.222,3.871,5.222
				C170.188,273.442,171.647,271.011,171.647,268.257z"/>
		</g>
		<g>
			<path d="M152.528,152.628c-1.008-1.008-1.584-2.305-1.584-4.879v-0.036c0-3.835,1.945-6.842,5.24-6.842
				c1.513,0,2.629,0.54,3.727,1.44l-0.828,1.098c-0.937-0.792-1.819-1.242-2.971-1.242c-2.287,0-3.709,2.305-3.691,5.563
				c0.684-1.008,1.747-1.926,3.583-1.926c2.341,0,4.357,1.512,4.357,3.871v0.036c0,2.431-1.962,4.195-4.52,4.195
				C154.455,153.907,153.32,153.421,152.528,152.628z M158.902,149.766v-0.036c0-1.548-1.26-2.701-3.079-2.701
				c-1.89,0-3.151,1.351-3.151,2.755v0.036c0,1.603,1.333,2.827,3.187,2.827S158.902,151.368,158.902,149.766z"/>
			<path d="M162.607,147.425v-0.036c0-3.529,2.107-6.518,5.348-6.518c3.241,0,5.293,2.953,5.293,6.482v0.036
				c0,3.529-2.088,6.518-5.33,6.518C164.66,153.907,162.607,150.954,162.607,147.425z M171.772,147.425v-0.036
				c0-2.755-1.513-5.222-3.854-5.222c-2.358,0-3.835,2.413-3.835,5.186v0.036c0,2.755,1.512,5.221,3.871,5.221
				S171.772,150.18,171.772,147.425z"/>
		</g>
		<g>
			<path d="M150.962,32.891v-0.036c0-1.495,1.08-2.557,2.593-3.097c-1.17-0.54-2.161-1.44-2.161-2.899v-0.036
				c0-1.945,1.999-3.331,4.304-3.331s4.303,1.386,4.303,3.331v0.036c0,1.458-0.99,2.359-2.161,2.899
				c1.494,0.558,2.593,1.584,2.593,3.079v0.036c0,2.143-2.053,3.583-4.735,3.583C153.015,36.456,150.962,34.997,150.962,32.891z
				 M158.993,32.854v-0.036c0-1.404-1.458-2.395-3.295-2.395c-1.837,0-3.295,0.99-3.295,2.395v0.036
				c0,1.278,1.224,2.358,3.295,2.358C157.768,35.213,158.993,34.133,158.993,32.854z M158.579,26.949v-0.036
				c0-1.242-1.243-2.179-2.881-2.179c-1.639,0-2.881,0.918-2.881,2.179v0.036c0,1.368,1.278,2.305,2.881,2.305
				S158.579,28.317,158.579,26.949z"/>
			<path d="M162.482,30.01v-0.036c0-3.529,2.107-6.518,5.348-6.518c3.241,0,5.293,2.953,5.293,6.482v0.036
				c0,3.529-2.088,6.518-5.33,6.518C164.535,36.491,162.482,33.539,162.482,30.01z M171.647,30.01v-0.036
				c0-2.755-1.513-5.222-3.854-5.222c-2.358,0-3.835,2.413-3.835,5.186v0.036c0,2.755,1.513,5.222,3.871,5.222
				C170.188,35.195,171.647,32.764,171.647,30.01z"/>
		</g>
	</g>
	<g>
		<path d="M196.395,522.459v-0.027c0-2.773,2.073-5.071,4.958-5.071c1.779,0,2.844,0.631,3.824,1.555l-0.756,0.812
			c-0.827-0.784-1.751-1.345-3.082-1.345c-2.171,0-3.796,1.766-3.796,4.021v0.028c0,2.269,1.639,4.048,3.796,4.048
			c1.345,0,2.228-0.519,3.166-1.415l0.729,0.715c-1.023,1.036-2.144,1.723-3.922,1.723
			C198.482,527.502,196.395,525.274,196.395,522.459z"/>
		<path d="M206.433,525.232v-0.027c0-1.555,1.261-2.367,3.096-2.367c0.925,0,1.569,0.126,2.213,0.308v-0.224
			c0-1.289-0.785-1.961-2.143-1.961c-0.854,0-1.527,0.21-2.199,0.518l-0.322-0.882c0.798-0.364,1.569-0.616,2.633-0.616
			c1.022,0,1.821,0.279,2.339,0.798c0.504,0.505,0.756,1.205,0.756,2.129v4.427h-1.064v-1.078c-0.504,0.644-1.331,1.232-2.605,1.232
			C207.777,527.488,206.433,526.718,206.433,525.232z M211.756,524.673V524c-0.533-0.154-1.233-0.308-2.115-0.308
			c-1.345,0-2.115,0.588-2.115,1.456v0.028c0,0.91,0.84,1.442,1.821,1.442C210.677,526.619,211.756,525.821,211.756,524.673z"/>
		<path d="M215.085,520.092h1.079v1.219c0.476-0.714,1.121-1.373,2.339-1.373c1.177,0,1.933,0.631,2.325,1.443
			c0.518-0.799,1.289-1.443,2.549-1.443c1.667,0,2.689,1.121,2.689,2.914v4.482h-1.079v-4.23c0-1.4-0.7-2.185-1.877-2.185
			c-1.093,0-2.003,0.812-2.003,2.241v4.174h-1.065v-4.258c0-1.359-0.714-2.157-1.863-2.157s-2.017,0.952-2.017,2.283v4.132h-1.079
			V520.092z"/>
		<path d="M228.398,520.092h1.079v1.457c0.588-0.868,1.443-1.611,2.773-1.611c1.737,0,3.46,1.373,3.46,3.755v0.027
			c0,2.367-1.709,3.769-3.46,3.769c-1.345,0-2.213-0.729-2.773-1.541v3.628h-1.079V520.092z M234.604,523.734v-0.028
			c0-1.709-1.177-2.802-2.549-2.802c-1.345,0-2.62,1.135-2.62,2.788v0.027c0,1.682,1.275,2.802,2.62,2.802
			C233.455,526.521,234.604,525.485,234.604,523.734z"/>
		<path d="M237.722,517.318h1.233v1.19h-1.233V517.318z M237.792,520.092h1.079v7.242h-1.079V520.092z"/>
		<path d="M241.376,520.092h1.079v1.261c0.476-0.784,1.233-1.415,2.479-1.415c1.751,0,2.773,1.177,2.773,2.9v4.496h-1.079v-4.23
			c0-1.345-0.729-2.185-2.003-2.185c-1.247,0-2.171,0.91-2.171,2.269v4.146h-1.079V520.092z"/>
		<path d="M249.454,525.232v-0.027c0-1.555,1.261-2.367,3.096-2.367c0.925,0,1.569,0.126,2.213,0.308v-0.224
			c0-1.289-0.785-1.961-2.143-1.961c-0.854,0-1.527,0.21-2.199,0.518l-0.322-0.882c0.798-0.364,1.569-0.616,2.633-0.616
			c1.022,0,1.821,0.279,2.339,0.798c0.504,0.505,0.756,1.205,0.756,2.129v4.427h-1.064v-1.078c-0.504,0.644-1.331,1.232-2.605,1.232
			C250.798,527.488,249.454,526.718,249.454,525.232z M254.777,524.673V524c-0.533-0.154-1.233-0.308-2.115-0.308
			c-1.345,0-2.115,0.588-2.115,1.456v0.028c0,0.91,0.84,1.442,1.821,1.442C253.698,526.619,254.777,525.821,254.777,524.673z"/>
		<path d="M257.504,526.409l0.546-0.771c0.785,0.589,1.653,0.925,2.507,0.925c0.869,0,1.499-0.448,1.499-1.148v-0.028
			c0-0.729-0.854-1.009-1.807-1.274c-1.134-0.322-2.395-0.715-2.395-2.045v-0.028c0-1.247,1.037-2.073,2.465-2.073
			c0.882,0,1.863,0.309,2.605,0.799l-0.49,0.812c-0.672-0.435-1.443-0.7-2.144-0.7c-0.854,0-1.4,0.448-1.4,1.05v0.028
			c0,0.687,0.896,0.952,1.863,1.247c1.121,0.336,2.325,0.771,2.325,2.072v0.028c0,1.373-1.135,2.171-2.577,2.171
			C259.465,527.474,258.316,527.067,257.504,526.409z"/>
		<path d="M264.784,522.558h3.894v1.135h-3.894V522.558z"/>
		<path d="M196.395,539.259v-0.027c0-2.773,2.073-5.071,4.958-5.071c1.779,0,2.844,0.631,3.824,1.555l-0.756,0.812
			c-0.827-0.784-1.751-1.345-3.082-1.345c-2.171,0-3.796,1.766-3.796,4.021v0.028c0,2.269,1.639,4.048,3.796,4.048
			c1.345,0,2.228-0.519,3.166-1.415l0.729,0.715c-1.023,1.036-2.144,1.723-3.922,1.723
			C198.482,544.302,196.395,542.074,196.395,539.259z"/>
		<path d="M210.033,543.363c0.995,0,1.695-0.406,2.283-1.022l0.672,0.603c-0.729,0.812-1.611,1.358-2.984,1.358
			c-1.989,0-3.614-1.526-3.614-3.782c0-2.101,1.471-3.781,3.474-3.781c2.143,0,3.375,1.708,3.375,3.838c0,0.098,0,0.21-0.014,0.378
			h-5.743C207.637,542.48,208.758,543.363,210.033,543.363z M212.148,540.086c-0.126-1.317-0.883-2.438-2.312-2.438
			c-1.247,0-2.199,1.036-2.353,2.438H212.148z"/>
		<path d="M215.127,536.892h1.079v1.261c0.476-0.784,1.233-1.414,2.479-1.414c1.751,0,2.773,1.176,2.773,2.899v4.496h-1.079v-4.23
			c0-1.345-0.729-2.185-2.003-2.185c-1.247,0-2.171,0.91-2.171,2.269v4.146h-1.079V536.892z"/>
		<path d="M224.129,542.215v-4.37h-1.009v-0.953h1.009v-2.185h1.079v2.185h2.297v0.953h-2.297v4.229c0,0.883,0.49,1.205,1.218,1.205
			c0.364,0,0.672-0.07,1.051-0.252v0.925c-0.378,0.195-0.784,0.308-1.303,0.308C225.012,544.26,224.129,543.686,224.129,542.215z"/>
		<path d="M229.407,536.892h1.079v1.892c0.532-1.205,1.583-2.073,2.956-2.018v1.163h-0.084c-1.583,0-2.872,1.135-2.872,3.319v2.886
			h-1.079V536.892z"/>
		<path d="M234.321,540.548v-0.028c0-2.045,1.597-3.781,3.782-3.781c2.171,0,3.768,1.708,3.768,3.754v0.027
			c0,2.045-1.611,3.782-3.796,3.782C235.904,544.302,234.321,542.593,234.321,540.548z M240.764,540.548v-0.028
			c0-1.555-1.163-2.829-2.689-2.829c-1.569,0-2.647,1.274-2.647,2.802v0.027c0,1.555,1.149,2.815,2.676,2.815
			C239.672,543.335,240.764,542.074,240.764,540.548z"/>
	</g>
	<g>
		<path d="M304.422,517.528h1.106v8.783h5.519v1.022h-6.625V517.528z"/>
		<path d="M315.96,526.563c0.995,0,1.695-0.406,2.283-1.022l0.672,0.603c-0.729,0.812-1.611,1.358-2.984,1.358
			c-1.989,0-3.614-1.526-3.614-3.782c0-2.101,1.471-3.782,3.474-3.782c2.143,0,3.375,1.709,3.375,3.839c0,0.098,0,0.21-0.014,0.378
			h-5.743C313.564,525.681,314.685,526.563,315.96,526.563z M318.075,523.286c-0.126-1.317-0.883-2.438-2.312-2.438
			c-1.247,0-2.199,1.036-2.353,2.438H318.075z"/>
		<path d="M320.452,526.409l0.546-0.771c0.785,0.589,1.653,0.925,2.507,0.925c0.869,0,1.499-0.448,1.499-1.148v-0.028
			c0-0.729-0.854-1.009-1.807-1.274c-1.134-0.322-2.395-0.715-2.395-2.045v-0.028c0-1.247,1.037-2.073,2.465-2.073
			c0.882,0,1.863,0.309,2.605,0.799l-0.49,0.812c-0.672-0.435-1.443-0.7-2.144-0.7c-0.854,0-1.4,0.448-1.4,1.05v0.028
			c0,0.687,0.896,0.952,1.863,1.247c1.121,0.336,2.325,0.771,2.325,2.072v0.028c0,1.373-1.134,2.171-2.577,2.171
			C322.413,527.474,321.264,527.067,320.452,526.409z"/>
		<path d="M328.264,525.415v-4.37h-1.009v-0.953h1.009v-2.185h1.079v2.185h2.297v0.953h-2.297v4.229c0,0.883,0.49,1.205,1.218,1.205
			c0.364,0,0.672-0.07,1.051-0.252v0.925c-0.378,0.195-0.785,0.308-1.303,0.308C329.146,527.46,328.264,526.886,328.264,525.415z"/>
		<path d="M336.526,526.563c0.995,0,1.695-0.406,2.283-1.022l0.672,0.603c-0.729,0.812-1.611,1.358-2.983,1.358
			c-1.989,0-3.614-1.526-3.614-3.782c0-2.101,1.471-3.782,3.474-3.782c2.143,0,3.375,1.709,3.375,3.839c0,0.098,0,0.21-0.014,0.378
			h-5.743C334.13,525.681,335.251,526.563,336.526,526.563z M338.641,523.286c-0.126-1.317-0.883-2.438-2.312-2.438
			c-1.247,0-2.199,1.036-2.353,2.438H338.641z"/>
	</g>
	<g>
		<path d="M373.417,517.352l1.037,0.01l6.106,7.913l0.071-7.857l1.079,0.01l-0.089,9.805l-0.882-0.008l-6.259-8.097l-0.073,8.039
			l-1.079-0.01L373.417,517.352z"/>
		<path d="M383.79,523.665l0-0.028c0.019-2.044,1.631-3.767,3.816-3.747c2.171,0.02,3.752,1.743,3.734,3.788v0.027
			c-0.019,2.046-1.645,3.768-3.831,3.748C385.339,527.434,383.771,525.71,383.79,523.665z M390.233,523.724l0-0.028
			c0.014-1.554-1.137-2.839-2.664-2.853c-1.569-0.015-2.658,1.25-2.672,2.776v0.027c-0.014,1.555,1.123,2.826,2.65,2.84
			C389.116,526.501,390.219,525.25,390.233,523.724z"/>
		<path d="M393.315,520.096l1.079,0.01l-0.017,1.892c0.543-1.2,1.602-2.059,2.973-1.99l-0.01,1.163l-0.083-0.001
			c-1.583-0.015-2.882,1.108-2.902,3.292l-0.026,2.886l-1.079-0.01L393.315,520.096z"/>
		<path d="M398.237,523.782v-0.028c0.021-2.366,1.757-3.752,3.494-3.736c1.345,0.013,2.207,0.749,2.759,1.566l0.04-4.37l1.079,0.01
			l-0.093,10.225l-1.079-0.01l0.013-1.457c-0.596,0.864-1.457,1.599-2.788,1.586C399.926,527.552,398.215,526.163,398.237,523.782z
			 M404.513,523.824v-0.027c0.015-1.666-1.249-2.798-2.594-2.811c-1.401-0.013-2.559,1.014-2.575,2.764v0.027
			c-0.016,1.709,1.151,2.812,2.524,2.825C403.213,526.615,404.498,525.491,404.513,523.824z"/>
		<path d="M411.121,526.729c0.995,0.009,1.699-0.391,2.292-1.002l0.667,0.608c-0.736,0.807-1.623,1.344-2.996,1.332
			c-1.988-0.019-3.6-1.56-3.579-3.815c0.019-2.1,1.505-3.768,3.508-3.75c2.143,0.02,3.36,1.74,3.341,3.869
			c-0.001,0.098-0.002,0.21-0.017,0.378l-5.743-0.053C408.734,525.824,409.846,526.717,411.121,526.729z M413.266,523.472
			c-0.114-1.319-0.861-2.446-2.29-2.459c-1.247-0.011-2.208,1.017-2.375,2.416L413.266,523.472z"/>
		<path d="M415.614,526.615l0.553-0.766c0.779,0.596,1.645,0.939,2.499,0.947c0.869,0.008,1.503-0.435,1.509-1.135l0-0.028
			c0.006-0.729-0.845-1.017-1.795-1.291c-1.131-0.332-2.389-0.735-2.377-2.065l0-0.028c0.011-1.247,1.055-2.063,2.484-2.051
			c0.882,0.008,1.86,0.325,2.599,0.822l-0.498,0.808c-0.668-0.44-1.437-0.713-2.137-0.719c-0.854-0.008-1.405,0.436-1.41,1.037
			v0.028c-0.006,0.687,0.888,0.96,1.851,1.264c1.118,0.345,2.318,0.79,2.307,2.092l0,0.028c-0.012,1.373-1.154,2.161-2.597,2.147
			C417.565,527.697,416.42,527.28,415.614,526.615z"/>
		<path d="M423.435,525.691l0.04-4.369l-1.009-0.009l0.009-0.953l1.009,0.009l0.02-2.185l1.079,0.01l-0.02,2.185l2.297,0.021
			l-0.009,0.953l-2.297-0.021l-0.038,4.229c-0.008,0.883,0.479,1.21,1.208,1.216c0.364,0.004,0.673-0.063,1.053-0.242l-0.008,0.925
			c-0.38,0.192-0.788,0.301-1.306,0.296C424.299,527.744,423.422,527.162,423.435,525.691z"/>
		<path d="M431.686,526.915c0.995,0.009,1.699-0.391,2.292-1.002l0.667,0.608c-0.736,0.806-1.623,1.344-2.996,1.332
			c-1.989-0.019-3.6-1.56-3.58-3.815c0.019-2.1,1.505-3.768,3.508-3.75c2.143,0.02,3.359,1.74,3.34,3.869
			c-0.001,0.098-0.002,0.21-0.017,0.377l-5.743-0.052C429.298,526.011,430.411,526.903,431.686,526.915z M433.831,523.657
			c-0.114-1.318-0.861-2.445-2.29-2.458c-1.247-0.012-2.208,1.017-2.375,2.416L433.831,523.657z"/>
	</g>
	<g>
		<path d="M467.409,517.352l1.037,0.01l6.106,7.913l0.071-7.857l1.079,0.01l-0.089,9.805l-0.882-0.008l-6.259-8.097l-0.073,8.039
			l-1.079-0.01L467.409,517.352z"/>
		<path d="M477.782,523.665l0-0.028c0.019-2.044,1.631-3.767,3.816-3.747c2.171,0.02,3.752,1.743,3.734,3.788v0.027
			c-0.019,2.046-1.645,3.768-3.831,3.748C479.331,527.434,477.764,525.71,477.782,523.665z M484.225,523.724l0-0.028
			c0.014-1.554-1.137-2.839-2.664-2.853c-1.569-0.015-2.658,1.25-2.672,2.776v0.027c-0.014,1.555,1.123,2.826,2.65,2.84
			C483.108,526.501,484.211,525.25,484.225,523.724z"/>
		<path d="M487.307,520.096l1.079,0.01l-0.017,1.892c0.543-1.2,1.602-2.059,2.973-1.99l-0.01,1.163l-0.083-0.001
			c-1.583-0.015-2.882,1.108-2.902,3.292l-0.026,2.886l-1.079-0.01L487.307,520.096z"/>
		<path d="M493.307,525.473l0.04-4.369l-1.009-0.009l0.009-0.953l1.009,0.009l0.02-2.185l1.079,0.01l-0.02,2.185l2.297,0.021
			l-0.009,0.953l-2.297-0.021l-0.038,4.229c-0.008,0.883,0.479,1.21,1.208,1.217c0.364,0.003,0.673-0.064,1.053-0.243l-0.008,0.925
			c-0.38,0.192-0.787,0.301-1.306,0.296C494.17,527.526,493.293,526.943,493.307,525.473z"/>
		<path d="M501.557,526.696c0.995,0.009,1.699-0.391,2.293-1.002l0.666,0.608c-0.735,0.807-1.622,1.344-2.994,1.332
			c-1.99-0.019-3.602-1.56-3.58-3.815c0.019-2.1,1.504-3.768,3.508-3.75c2.143,0.02,3.359,1.74,3.34,3.869
			c0,0.098-0.002,0.21-0.017,0.378l-5.743-0.053C499.17,525.792,500.283,526.685,501.557,526.696z M503.702,523.439
			c-0.114-1.319-0.859-2.446-2.289-2.459c-1.246-0.011-2.208,1.017-2.375,2.416L503.702,523.439z"/>
	</g>
	<g>
		<path d="M728.436,525.892l0.693-0.806c1.014,0.934,1.99,1.404,3.35,1.417c1.316,0.012,2.191-0.681,2.2-1.647v-0.028
			c0.009-0.91-0.478-1.432-2.532-1.884c-2.25-0.511-3.281-1.249-3.266-2.86v-0.027c0.014-1.541,1.383-2.663,3.246-2.646
			c1.428,0.013,2.447,0.429,3.435,1.236l-0.652,0.848c-0.903-0.75-1.812-1.081-2.819-1.09c-1.275-0.012-2.094,0.682-2.102,1.563
			v0.028c-0.009,0.925,0.49,1.447,2.645,1.93c2.18,0.495,3.182,1.304,3.168,2.802v0.027c-0.016,1.682-1.426,2.761-3.373,2.743
			C730.874,527.482,729.603,526.953,728.436,525.892z"/>
		<path d="M737.758,524.66l0.041-4.496l1.078,0.01l-0.038,4.229c-0.013,1.345,0.708,2.192,1.982,2.203
			c1.232,0.012,2.179-0.891,2.191-2.249l0.038-4.146l1.064,0.009l-0.065,7.241l-1.065-0.009l0.012-1.261
			c-0.497,0.779-1.245,1.403-2.491,1.393C738.754,527.568,737.743,526.383,737.758,524.66z"/>
		<path d="M746.66,517.261l1.079,0.01l-0.094,10.225l-1.078-0.01L746.66,517.261z"/>
	</g>
	<g>
		<path d="M626.915,525.722l0.693-0.806c1.014,0.934,1.99,1.404,3.35,1.417c1.316,0.012,2.191-0.681,2.2-1.647v-0.028
			c0.009-0.91-0.478-1.432-2.532-1.884c-2.25-0.511-3.281-1.249-3.266-2.86v-0.027c0.014-1.541,1.383-2.663,3.246-2.646
			c1.428,0.013,2.447,0.429,3.435,1.236l-0.652,0.848c-0.903-0.75-1.812-1.081-2.819-1.09c-1.275-0.012-2.094,0.682-2.102,1.563
			v0.028c-0.009,0.925,0.49,1.447,2.645,1.93c2.18,0.495,3.182,1.304,3.168,2.802v0.027c-0.016,1.682-1.426,2.761-3.373,2.743
			C629.352,527.312,628.082,526.783,626.915,525.722z"/>
		<path d="M636.237,524.49l0.041-4.496l1.078,0.01l-0.038,4.229c-0.013,1.345,0.708,2.192,1.982,2.203
			c1.232,0.012,2.179-0.891,2.191-2.249l0.038-4.146l1.064,0.009l-0.065,7.241l-1.065-0.009l0.012-1.261
			c-0.497,0.779-1.245,1.403-2.491,1.393C637.233,527.398,636.221,526.213,636.237,524.49z"/>
		<path d="M644.56,523.711v-0.028c0.021-2.366,1.757-3.752,3.493-3.736c1.346,0.013,2.207,0.749,2.76,1.566l0.04-4.37l1.078,0.01
			l-0.093,10.225l-1.078-0.01l0.014-1.457c-0.596,0.863-1.457,1.598-2.789,1.586C646.249,527.48,644.538,526.092,644.56,523.711z
			 M650.835,523.753v-0.027c0.015-1.666-1.249-2.799-2.595-2.811c-1.4-0.013-2.559,1.014-2.574,2.764v0.027
			c-0.016,1.709,1.151,2.812,2.523,2.825C649.536,526.543,650.821,525.42,650.835,523.753z"/>
		<path d="M657.444,526.657c0.994,0.009,1.698-0.392,2.292-1.002l0.667,0.608c-0.736,0.806-1.623,1.344-2.996,1.331
			c-1.988-0.018-3.6-1.559-3.58-3.814c0.02-2.1,1.506-3.768,3.509-3.75c2.144,0.02,3.36,1.739,3.341,3.868
			c-0.001,0.098-0.002,0.211-0.018,0.378l-5.742-0.052C655.055,525.753,656.168,526.646,657.444,526.657z M659.588,523.399
			c-0.115-1.318-0.861-2.445-2.289-2.458c-1.247-0.012-2.209,1.017-2.375,2.416L659.588,523.399z"/>
		<path d="M661.936,526.543l0.553-0.766c0.779,0.597,1.645,0.94,2.499,0.948c0.868,0.008,1.503-0.435,1.509-1.135l0.001-0.028
			c0.007-0.729-0.845-1.017-1.796-1.291c-1.131-0.333-2.388-0.735-2.376-2.065l0.001-0.028c0.011-1.247,1.055-2.064,2.482-2.051
			c0.883,0.008,1.861,0.325,2.6,0.822l-0.498,0.808c-0.668-0.44-1.437-0.713-2.137-0.72c-0.855-0.008-1.404,0.436-1.41,1.037v0.028
			c-0.006,0.687,0.887,0.961,1.851,1.265c1.118,0.345,2.318,0.79,2.307,2.092l-0.001,0.028c-0.012,1.373-1.153,2.161-2.596,2.147
			C663.887,527.626,662.743,527.209,661.936,526.543z"/>
		<path d="M669.757,525.62l0.04-4.369l-1.01-0.009l0.01-0.953l1.008,0.009l0.021-2.185l1.079,0.01l-0.021,2.185l2.297,0.021
			l-0.009,0.953l-2.297-0.021l-0.038,4.229c-0.008,0.883,0.479,1.209,1.208,1.216c0.363,0.004,0.672-0.064,1.053-0.242l-0.009,0.925
			c-0.38,0.191-0.787,0.301-1.306,0.296C670.622,527.673,669.745,527.091,669.757,525.62z"/>
		<path d="M678.008,526.844c0.994,0.009,1.698-0.392,2.292-1.002l0.667,0.608c-0.736,0.806-1.623,1.344-2.996,1.331
			c-1.988-0.018-3.6-1.559-3.579-3.814c0.019-2.1,1.505-3.769,3.508-3.75c2.144,0.02,3.36,1.739,3.341,3.868
			c-0.001,0.098-0.002,0.21-0.018,0.378l-5.742-0.052C675.621,525.938,676.733,526.832,678.008,526.844z M680.153,523.586
			c-0.115-1.318-0.861-2.445-2.289-2.458c-1.247-0.012-2.209,1.016-2.375,2.416L680.153,523.586z"/>
	</g>
	<g>
		<path d="M550.634,522.278l0.001-0.027c0.023-2.704,2.076-5.053,5.061-5.025c2.982,0.027,4.965,2.385,4.94,5.088v0.028
			c-0.024,2.702-2.077,5.051-5.062,5.024C552.592,527.339,550.61,524.981,550.634,522.278z M559.487,522.359v-0.027
			c0.021-2.228-1.588-4.064-3.829-4.084c-2.241-0.021-3.854,1.758-3.874,3.985v0.028c-0.021,2.226,1.588,4.062,3.829,4.082
			S559.467,524.586,559.487,522.359z"/>
		<path d="M565.942,526.521c0.995,0.009,1.699-0.392,2.293-1.002l0.667,0.608c-0.735,0.806-1.623,1.344-2.996,1.332
			c-1.989-0.019-3.6-1.56-3.579-3.815c0.02-2.1,1.504-3.768,3.508-3.75c2.143,0.02,3.359,1.74,3.341,3.869
			c-0.001,0.098-0.002,0.21-0.017,0.377l-5.744-0.052C563.555,525.617,564.667,526.51,565.942,526.521z M568.087,523.264
			c-0.114-1.318-0.86-2.445-2.29-2.458c-1.246-0.012-2.208,1.017-2.375,2.416L568.087,523.264z"/>
		<path d="M570.436,526.407l0.553-0.765c0.779,0.596,1.645,0.939,2.499,0.947c0.868,0.008,1.503-0.435,1.509-1.135v-0.028
			c0.007-0.729-0.844-1.017-1.795-1.291c-1.131-0.333-2.389-0.735-2.376-2.065v-0.028c0.011-1.247,1.056-2.064,2.483-2.051
			c0.883,0.008,1.86,0.325,2.599,0.822l-0.497,0.808c-0.668-0.44-1.437-0.713-2.137-0.72c-0.855-0.008-1.405,0.436-1.41,1.037v0.028
			c-0.007,0.687,0.887,0.961,1.851,1.265c1.118,0.345,2.317,0.79,2.306,2.092v0.028c-0.012,1.373-1.153,2.161-2.596,2.147
			C572.387,527.49,571.243,527.073,570.436,526.407z"/>
		<path d="M578.256,525.484l0.039-4.369l-1.008-0.009l0.008-0.953l1.01,0.009l0.02-2.185l1.078,0.01l-0.02,2.185l2.297,0.021
			l-0.009,0.953l-2.297-0.021l-0.038,4.229c-0.008,0.883,0.479,1.209,1.207,1.216c0.365,0.004,0.674-0.064,1.053-0.242l-0.008,0.925
			c-0.38,0.191-0.787,0.301-1.306,0.296C579.12,527.537,578.243,526.955,578.256,525.484z"/>
		<path d="M586.507,526.708c0.994,0.009,1.698-0.392,2.292-1.002l0.667,0.608c-0.735,0.806-1.623,1.344-2.995,1.331
			c-1.989-0.018-3.601-1.559-3.58-3.814c0.02-2.1,1.505-3.769,3.508-3.75c2.143,0.02,3.359,1.739,3.341,3.868
			c-0.001,0.098-0.002,0.21-0.017,0.378l-5.743-0.052C584.12,525.803,585.233,526.696,586.507,526.708z M588.652,523.45
			c-0.114-1.318-0.86-2.445-2.289-2.458c-1.247-0.012-2.208,1.016-2.375,2.416L588.652,523.45z"/>
	</g>
	<g>
		<g>
			<line fill="none" stroke="#000000" stroke-miterlimit="10" x1="187.667" y1="504.796" x2="779.952" y2="504.796"/>
			<g>
				<g>
					<line fill="none" stroke="#000000" stroke-miterlimit="10" x1="280.322" y1="504.796" x2="280.322" y2="495.415"/>
					<line fill="none" stroke="#000000" stroke-miterlimit="10" x1="363.595" y1="504.796" x2="363.595" y2="495.415"/>
					<line fill="none" stroke="#000000" stroke-miterlimit="10" x1="446.867" y1="504.796" x2="446.867" y2="495.415"/>
					<line fill="none" stroke="#000000" stroke-miterlimit="10" x1="530.139" y1="504.796" x2="530.139" y2="495.415"/>
					<line fill="none" stroke="#000000" stroke-miterlimit="10" x1="613.409" y1="504.796" x2="613.409" y2="495.415"/>
					<line fill="none" stroke="#000000" stroke-miterlimit="10" x1="696.68" y1="504.796" x2="696.68" y2="495.415"/>
					<line fill="none" stroke="#000000" stroke-miterlimit="10" x1="779.952" y1="504.796" x2="779.952" y2="495.415"/>
				</g>
			</g>
		</g>
		<g>
			<line fill="none" stroke="#000000" stroke-miterlimit="10" x1="187.667" y1="504.796" x2="187.667" y2="29.086"/>
			<g>
				<g>
					<line fill="none" stroke="#000000" stroke-miterlimit="10" x1="187.667" y1="504.796" x2="187.667" y2="504.796"/>
					<line fill="none" stroke="#000000" stroke-miterlimit="10" x1="187.667" y1="385.868" x2="199.25" y2="385.868"/>
					<line fill="none" stroke="#000000" stroke-miterlimit="10" x1="187.667" y1="266.94" x2="199.25" y2="266.94"/>
					<line fill="none" stroke="#000000" stroke-miterlimit="10" x1="187.667" y1="148.014" x2="199.25" y2="148.014"/>
					<line fill="none" stroke="#000000" stroke-miterlimit="10" x1="187.667" y1="29.086" x2="199.25" y2="29.086"/>
				</g>
			</g>
		</g>
	</g>
	<g>
		<g>
			<g>
				<rect x="238.685" y="403.823" fill="#D0DA28" width="33.311" height="101.09"/>
				<rect x="321.958" y="372.783" fill="#D0DA28" width="33.311" height="132.13"/>
				<rect x="405.23" y="338.413" fill="#D0DA28" width="33.309" height="166.5"/>
				<rect x="488.502" y="372.783" fill="#D0DA28" width="33.309" height="132.13"/>
				<rect x="571.774" y="356.253" fill="#D0DA28" width="33.309" height="148.66"/>
				<rect x="655.045" y="278.95" fill="#D0DA28" width="33.309" height="225.963"/>
				<rect x="738.317" y="415.718" fill="#D0DA28" width="33.307" height="89.195"/>
			</g>
		</g>
		<g>
			<g>
				<rect x="205.376" y="47.042" fill="#E35563" width="33.309" height="457.871"/>
				<rect x="288.65" y="278.95" fill="#E35563" width="33.309" height="225.963"/>
				<rect x="371.921" y="97.667" fill="#E35563" width="33.309" height="407.246"/>
				<rect x="455.193" y="326.521" fill="#E35563" width="33.31" height="178.393"/>
				<rect x="538.465" y="148.131" fill="#E35563" width="33.309" height="356.782"/>
				<rect x="621.737" y="79.828" fill="#E35563" width="33.309" height="425.085"/>
				<rect x="705.008" y="237.326" fill="#E35563" width="33.309" height="267.587"/>
			</g>
		</g>
	</g>
</g>
<rect fill="none" width="992.125" height="600.576"/>
<g>
</g>
<g>
</g>
<g>
</g>
<g>
</g>
<g>
</g>
<g>
</g>
</svg>
