<?xml version="1.0" encoding="utf-8"?>
<!-- Generator: Adobe Illustrator 16.0.0, SVG Export Plug-In . SVG Version: 6.00 Build 0)  -->
<!DOCTYPE svg PUBLIC "-//W3C//DTD SVG 1.1//EN" "http://www.w3.org/Graphics/SVG/1.1/DTD/svg11.dtd">
<svg version="1.1" id="Layer_2" xmlns="http://www.w3.org/2000/svg" xmlns:xlink="http://www.w3.org/1999/xlink" x="0px" y="0px"
	 width="992.125px" height="706.465px" viewBox="0 0 992.125 706.465" enable-background="new 0 0 992.125 706.465"
	 xml:space="preserve">
<g>
	<path d="M278.944,18.129h16.19v2.304h-13.663v7.647h12.223v2.304h-12.223v7.839h13.823v2.304h-16.351V18.129z"/>
	<path d="M298.912,37.264l1.568-1.856c2.336,2.112,4.576,3.168,7.68,3.168c3.008,0,4.992-1.6,4.992-3.808v-0.064
		c0-2.08-1.12-3.264-5.824-4.255c-5.152-1.12-7.52-2.784-7.52-6.464V23.92c0-3.52,3.104-6.111,7.359-6.111
		c3.264,0,5.6,0.928,7.872,2.751l-1.472,1.952c-2.08-1.696-4.16-2.432-6.463-2.432c-2.912,0-4.768,1.6-4.768,3.616v0.064
		c0,2.112,1.152,3.295,6.08,4.352c4.992,1.088,7.295,2.912,7.295,6.335v0.064c0,3.84-3.2,6.335-7.647,6.335
		C304.511,40.847,301.6,39.664,298.912,37.264z"/>
	<path d="M319.872,29.392v-0.064c0-6.335,4.736-11.583,11.327-11.583c4.064,0,6.496,1.44,8.735,3.552l-1.728,1.856
		c-1.888-1.792-4-3.072-7.04-3.072c-4.96,0-8.671,4.031-8.671,9.183v0.064c0,5.184,3.744,9.248,8.671,9.248
		c3.072,0,5.087-1.184,7.231-3.232l1.664,1.632c-2.335,2.368-4.896,3.936-8.959,3.936C324.639,40.911,319.872,35.824,319.872,29.392
		z"/>
	<path d="M342.848,29.392v-0.064c0-6.175,4.64-11.583,11.455-11.583s11.391,5.343,11.391,11.519v0.064
		c0,6.176-4.64,11.583-11.455,11.583S342.848,35.568,342.848,29.392z M363.07,29.392v-0.064c0-5.087-3.712-9.247-8.832-9.247
		s-8.767,4.096-8.767,9.183v0.064c0,5.088,3.711,9.248,8.831,9.248S363.07,34.48,363.07,29.392z"/>
	<path d="M371.04,18.129h2.528v20.062h12.607v2.336H371.04V18.129z"/>
	<path d="M399.134,17.969h2.368l10.207,22.559h-2.72l-2.624-5.919h-12.191l-2.656,5.919h-2.592L399.134,17.969z M405.374,32.336
		l-5.088-11.423l-5.12,11.423H405.374z"/>
	<path d="M416.127,18.129h9.631c2.751,0,4.959,0.832,6.367,2.24c1.088,1.088,1.728,2.656,1.728,4.416v0.064
		c0,3.711-2.56,5.887-6.08,6.527l6.879,9.151h-3.104l-6.496-8.703h-6.399v8.703h-2.528V18.129z M425.534,29.552
		c3.36,0,5.759-1.728,5.759-4.608V24.88c0-2.751-2.112-4.416-5.728-4.416h-6.911v9.087H425.534z"/>
	<path d="M439.486,18.129h2.528v22.398h-2.528V18.129z"/>
	<path d="M448.574,18.129h7.775c7.04,0,11.903,4.832,11.903,11.135v0.064c0,6.304-4.863,11.199-11.903,11.199h-7.775V18.129z
		 M456.35,38.191c5.664,0,9.279-3.84,9.279-8.799v-0.064c0-4.959-3.616-8.863-9.279-8.863h-5.248v17.727H456.35z"/>
	<path d="M480.414,17.969h2.368l10.207,22.559h-2.72l-2.624-5.919h-12.191l-2.656,5.919h-2.592L480.414,17.969z M486.653,32.336
		l-5.087-11.423l-5.12,11.423H486.653z"/>
	<path d="M497.406,18.129h7.775c7.039,0,11.903,4.832,11.903,11.135v0.064c0,6.304-4.864,11.199-11.903,11.199h-7.775V18.129z
		 M505.181,38.191c5.663,0,9.279-3.84,9.279-8.799v-0.064c0-4.959-3.616-8.863-9.279-8.863h-5.248v17.727H505.181z"/>
	<path d="M522.429,18.129h16.19v2.304h-13.663v7.647h12.224v2.304h-12.224v7.839h13.823v2.304h-16.351V18.129z"/>
	<path d="M553.468,18.129h2.56l8.159,12.223l8.16-12.223h2.56v22.398h-2.528V22.385l-8.159,11.999h-0.128l-8.159-11.967v18.111
		h-2.464V18.129z"/>
	<path d="M589.531,17.969h2.368l10.207,22.559h-2.72l-2.624-5.919h-12.191l-2.655,5.919h-2.592L589.531,17.969z M595.77,32.336
		l-5.087-11.423l-5.12,11.423H595.77z"/>
	<path d="M609.562,20.465h-7.519v-2.336h17.599v2.336h-7.52v20.062h-2.561V20.465z"/>
	<path d="M624.379,18.129h16.19v2.304h-13.663v7.647h12.224v2.304h-12.224v7.839h13.823v2.304h-16.351V18.129z"/>
	<path d="M645.819,18.129h9.631c2.752,0,4.96,0.832,6.368,2.24c1.088,1.088,1.728,2.656,1.728,4.416v0.064
		c0,3.711-2.56,5.887-6.08,6.527l6.88,9.151h-3.104l-6.496-8.703h-6.399v8.703h-2.527V18.129z M655.226,29.552
		c3.359,0,5.76-1.728,5.76-4.608V24.88c0-2.751-2.112-4.416-5.728-4.416h-6.912v9.087H655.226z"/>
	<path d="M668.955,18.129h2.367l14.111,17.951V18.129h2.464v22.398h-2.016l-14.463-18.367v18.367h-2.464V18.129z"/>
	<path d="M702.522,17.969h2.368l10.207,22.559h-2.72l-2.624-5.919h-12.191l-2.655,5.919h-2.592L702.522,17.969z M708.761,32.336
		l-5.087-11.423l-5.12,11.423H708.761z"/>
</g>
<rect x="669.733" y="261.139" fill="#E35563" width="22.553" height="22.553"/>
<rect x="669.732" y="361.661" fill="#DAB138" width="22.553" height="22.553"/>
<rect x="669.732" y="411.921" fill="#D0DA28" width="22.553" height="22.553"/>
<rect x="669.732" y="462.182" fill="#A0C04F" width="22.553" height="22.553"/>
<rect x="669.732" y="512.444" fill="#6BA27A" width="22.553" height="22.553"/>
<rect x="669.731" y="210.877" fill="#262261" width="22.555" height="22.553"/>
<rect x="669.732" y="562.705" fill="#C1B49A" width="22.553" height="22.553"/>
<g>
	<g>
		<g>
			<g>
				<path fill="#6BA27A" d="M342.579,410.772L84.226,306.391C127.578,199.092,226.854,132.13,342.579,132.13V410.772z"/>
			</g>
		</g>
		<g>
			<g>
				<path fill="#A0C04F" d="M342.579,410.772L73.431,482.889c-16.41-61.242-12.956-117.713,10.795-176.498L342.579,410.772z"/>
			</g>
		</g>
		<g>
			<g>
				<path fill="#D0DA28" d="M342.579,410.772l271.5,62.681c-34.617,149.944-184.235,243.437-334.181,208.819
					c-102.562-23.679-179.223-97.709-206.466-199.383L342.579,410.772z"/>
			</g>
		</g>
		<g>
			<g>
				<path fill="#DAB138" d="M342.579,410.772L581.421,267.26c39.312,65.428,49.827,131.819,32.657,206.192L342.579,410.772z"/>
			</g>
		</g>
		<g>
			<g>
				<path fill="#DE874C" d="M342.579,410.772L510.27,188.238c29.496,22.227,52.129,47.364,71.151,79.022L342.579,410.772z"/>
			</g>
		</g>
		<g>
			<g>
				<path fill="#E35563" d="M342.579,410.772l9.725-278.473c59.058,2.062,110.771,20.376,157.967,55.939L342.579,410.772z"/>
			</g>
		</g>
		<g>
			<g>
				<path fill="#C1B49A" d="M342.579,410.772l4.863-278.6c2.461,0.043,2.4,0.042,4.861,0.127L342.579,410.772z"/>
			</g>
		</g>
		<g>
			<g>
				<path fill="#262261" d="M342.579,410.772V132.13c2.462,0,2.4,0,4.863,0.042L342.579,410.772z"/>
			</g>
		</g>
	</g>
	<g>
		<g>
		</g>
		<g>
		</g>
		<g>
		</g>
		<g>
		</g>
		<g>
		</g>
		<g>
		</g>
		<g>
		</g>
		<g>
		</g>
	</g>
</g>
<g>
	<g>
		
			<rect x="325.588" y="105.812" transform="matrix(-0.4492 0.8934 -0.8934 -0.4492 586.2318 -107.7716)" fill="#231F20" width="1.5" height="42.032"/>
		<path fill="#FFFFFF" d="M308.012,117.048l37.101,18.667l-0.449,0.894l-37.101-18.667L308.012,117.048 M307.79,116.376
			l-0.225,0.447l-0.449,0.894l-0.225,0.447l0.447,0.225l37.101,18.667l0.447,0.225l0.225-0.447l0.449-0.894l0.225-0.447
			l-0.447-0.225l-37.101-18.667L307.79,116.376L307.79,116.376z"/>
	</g>
</g>
<g>
	<g>
		
			<rect x="347.393" y="126.078" transform="matrix(-0.8933 0.4495 -0.4495 -0.8933 754.5123 74.5378)" fill="#231F20" width="42.032" height="1.5"/>
		<path fill="#FFFFFF" d="M386.734,117.048l0.449,0.894l-37.101,18.667l-0.449-0.894L386.734,117.048 M386.957,116.376l-0.447,0.225
			l-37.101,18.667l-0.447,0.225l0.225,0.447l0.449,0.894l0.225,0.447l0.447-0.225l37.101-18.667l0.447-0.225l-0.225-0.447
			l-0.449-0.894L386.957,116.376L386.957,116.376z"/>
	</g>
</g>
<g>
	<path fill="#231F20" d="M263.504,108.979v-0.036c0-3.529,2.107-6.518,5.348-6.518c3.241,0,5.293,2.953,5.293,6.482v0.036
		c0,3.529-2.088,6.518-5.33,6.518C265.557,115.461,263.504,112.508,263.504,108.979z M272.669,108.979v-0.036
		c0-2.755-1.513-5.222-3.854-5.222c-2.358,0-3.835,2.413-3.835,5.186v0.036c0,2.755,1.513,5.221,3.871,5.221
		C271.21,114.164,272.669,111.733,272.669,108.979z"/>
	<path fill="#231F20" d="M275.726,116.811c0.9-0.324,1.278-0.792,1.207-1.566h-0.648v-1.891h1.657v1.621
		c0,1.458-0.63,2.161-1.999,2.467L275.726,116.811z"/>
	<path fill="#231F20" d="M287.086,112.256h-6.644l-0.36-1.026l7.13-8.679h1.243v8.517h1.962v1.188h-1.962v2.989h-1.369V112.256z
		 M287.086,111.067v-6.5l-5.293,6.5H287.086z"/>
	<path fill="#231F20" d="M292.322,105.756v-0.036c0-1.71,1.152-3.223,2.881-3.223c1.692,0,2.827,1.494,2.827,3.187v0.036
		c0,1.71-1.152,3.223-2.863,3.223S292.322,107.448,292.322,105.756z M296.841,105.756v-0.036c0-1.26-0.756-2.215-1.674-2.215
		c-0.99,0-1.639,0.991-1.639,2.179v0.036c0,1.26,0.738,2.215,1.675,2.215C296.175,107.935,296.841,106.962,296.841,105.756z
		 M302.873,102.641h1.278l-9.236,12.604h-1.297L302.873,102.641z M299.758,112.202v-0.036c0-1.71,1.152-3.223,2.863-3.223
		s2.827,1.494,2.827,3.187v0.036c0,1.71-1.134,3.223-2.863,3.223C300.893,115.389,299.758,113.894,299.758,112.202z M304.26,112.202
		v-0.036c0-1.26-0.738-2.214-1.675-2.214c-0.972,0-1.638,0.99-1.638,2.179v0.036c0,1.261,0.738,2.215,1.674,2.215
		C303.611,114.38,304.26,113.408,304.26,112.202z"/>
</g>
<g>
	<path fill="#231F20" d="M389.921,108.979v-0.036c0-3.529,2.107-6.518,5.348-6.518c3.241,0,5.293,2.953,5.293,6.482v0.036
		c0,3.529-2.088,6.518-5.33,6.518C391.974,115.461,389.921,112.508,389.921,108.979z M399.086,108.979v-0.036
		c0-2.755-1.513-5.222-3.854-5.222c-2.358,0-3.835,2.413-3.835,5.186v0.036c0,2.755,1.513,5.221,3.871,5.221
		C397.628,114.164,399.086,111.733,399.086,108.979z"/>
	<path fill="#231F20" d="M402.144,116.811c0.9-0.324,1.278-0.792,1.207-1.566h-0.648v-1.891h1.657v1.621
		c0,1.458-0.63,2.161-1.999,2.467L402.144,116.811z"/>
	<path fill="#231F20" d="M413.504,112.256h-6.644l-0.36-1.026l7.13-8.679h1.243v8.517h1.962v1.188h-1.962v2.989h-1.369V112.256z
		 M413.504,111.067v-6.5l-5.293,6.5H413.504z"/>
	<path fill="#231F20" d="M418.74,105.756v-0.036c0-1.71,1.152-3.223,2.881-3.223c1.692,0,2.827,1.494,2.827,3.187v0.036
		c0,1.71-1.152,3.223-2.863,3.223S418.74,107.448,418.74,105.756z M423.259,105.756v-0.036c0-1.26-0.756-2.215-1.674-2.215
		c-0.99,0-1.639,0.991-1.639,2.179v0.036c0,1.26,0.738,2.215,1.675,2.215C422.593,107.935,423.259,106.962,423.259,105.756z
		 M429.291,102.641h1.278l-9.236,12.604h-1.297L429.291,102.641z M426.176,112.202v-0.036c0-1.71,1.152-3.223,2.863-3.223
		s2.827,1.494,2.827,3.187v0.036c0,1.71-1.134,3.223-2.863,3.223C427.31,115.389,426.176,113.894,426.176,112.202z M430.677,112.202
		v-0.036c0-1.26-0.738-2.214-1.675-2.214c-0.972,0-1.638,0.99-1.638,2.179v0.036c0,1.261,0.738,2.215,1.674,2.215
		C430.029,114.38,430.677,113.408,430.677,112.202z"/>
</g>
<g>
	<path fill="#231F20" d="M380.478,231.162l0.828-1.098c1.026,0.9,1.981,1.35,3.097,1.35c2.269,0,3.799-2.305,3.745-5.527
		c-0.684,1.098-1.818,2.017-3.565,2.017c-2.593,0-4.394-1.639-4.394-3.907v-0.036c0-2.395,1.854-4.285,4.538-4.285
		c1.44,0,2.502,0.486,3.313,1.296c0.954,0.954,1.566,2.359,1.566,4.879v0.036c0,3.997-2.125,6.824-5.24,6.824
		C382.728,232.711,381.54,232.044,380.478,231.162z M387.878,223.834v-0.036c0-1.603-1.314-2.863-3.205-2.863
		s-3.025,1.387-3.025,2.953v0.036c0,1.603,1.26,2.755,3.097,2.755C386.671,226.679,387.878,225.274,387.878,223.834z"/>
	<path fill="#231F20" d="M391.35,234.061c0.9-0.324,1.278-0.792,1.207-1.566h-0.648v-1.891h1.657v1.621
		c0,1.458-0.63,2.161-1.999,2.467L391.35,234.061z"/>
	<path fill="#231F20" d="M397.614,231.432c-1.008-1.008-1.584-2.305-1.584-4.879v-0.036c0-3.835,1.945-6.842,5.24-6.842
		c1.513,0,2.629,0.54,3.727,1.44l-0.828,1.098c-0.937-0.792-1.819-1.242-2.971-1.242c-2.287,0-3.709,2.305-3.691,5.563
		c0.684-1.008,1.747-1.926,3.583-1.926c2.341,0,4.357,1.512,4.357,3.871v0.036c0,2.431-1.962,4.195-4.52,4.195
		C399.541,232.711,398.406,232.225,397.614,231.432z M403.988,228.569v-0.036c0-1.548-1.26-2.701-3.079-2.701
		c-1.89,0-3.151,1.351-3.151,2.755v0.036c0,1.603,1.333,2.827,3.187,2.827S403.988,230.172,403.988,228.569z"/>
	<path fill="#231F20" d="M407.513,223.006v-0.036c0-1.71,1.152-3.223,2.881-3.223c1.693,0,2.827,1.494,2.827,3.187v0.036
		c0,1.71-1.152,3.223-2.863,3.223S407.513,224.698,407.513,223.006z M412.033,223.006v-0.036c0-1.26-0.756-2.215-1.674-2.215
		c-0.99,0-1.639,0.991-1.639,2.179v0.036c0,1.26,0.738,2.215,1.674,2.215C411.367,225.185,412.033,224.212,412.033,223.006z
		 M418.064,219.891h1.278l-9.237,12.604h-1.296L418.064,219.891z M414.95,229.452v-0.036c0-1.71,1.152-3.223,2.863-3.223
		s2.827,1.494,2.827,3.187v0.036c0,1.71-1.134,3.223-2.863,3.223C416.084,232.639,414.95,231.144,414.95,229.452z M419.451,229.452
		v-0.036c0-1.26-0.738-2.214-1.675-2.214c-0.972,0-1.638,0.99-1.638,2.179v0.036c0,1.261,0.738,2.215,1.674,2.215
		C418.803,231.63,419.451,230.658,419.451,229.452z"/>
</g>
<g>
	<path fill="#231F20" d="M483.738,274.432c-1.008-1.008-1.584-2.305-1.584-4.879v-0.036c0-3.835,1.945-6.842,5.24-6.842
		c1.513,0,2.629,0.54,3.727,1.44l-0.828,1.098c-0.937-0.792-1.819-1.242-2.971-1.242c-2.287,0-3.709,2.305-3.691,5.563
		c0.684-1.008,1.747-1.926,3.583-1.926c2.341,0,4.357,1.512,4.357,3.871v0.036c0,2.431-1.962,4.195-4.52,4.195
		C485.665,275.711,484.53,275.225,483.738,274.432z M490.112,271.569v-0.036c0-1.548-1.26-2.701-3.079-2.701
		c-1.89,0-3.151,1.351-3.151,2.755v0.036c0,1.603,1.333,2.827,3.187,2.827S490.112,273.172,490.112,271.569z"/>
	<path fill="#231F20" d="M493.529,277.061c0.9-0.324,1.278-0.792,1.207-1.566h-0.648v-1.891h1.657v1.621
		c0,1.458-0.63,2.161-1.999,2.467L493.529,277.061z"/>
	<path fill="#231F20" d="M497.868,269.229v-0.036c0-3.529,2.106-6.518,5.348-6.518c3.24,0,5.293,2.953,5.293,6.482v0.036
		c0,3.529-2.088,6.518-5.33,6.518C499.92,275.711,497.868,272.758,497.868,269.229z M507.032,269.229v-0.036
		c0-2.755-1.512-5.222-3.854-5.222c-2.357,0-3.834,2.413-3.834,5.186v0.036c0,2.755,1.512,5.221,3.871,5.221
		C505.574,274.414,507.032,271.983,507.032,269.229z"/>
	<path fill="#231F20" d="M510.557,266.006v-0.036c0-1.71,1.152-3.223,2.881-3.223c1.693,0,2.827,1.494,2.827,3.187v0.036
		c0,1.71-1.152,3.223-2.862,3.223C511.692,269.193,510.557,267.698,510.557,266.006z M515.077,266.006v-0.036
		c0-1.26-0.756-2.215-1.674-2.215c-0.99,0-1.639,0.991-1.639,2.179v0.036c0,1.26,0.738,2.215,1.674,2.215
		C514.411,268.185,515.077,267.212,515.077,266.006z M521.108,262.891h1.279l-9.237,12.604h-1.296L521.108,262.891z
		 M517.994,272.452v-0.036c0-1.71,1.152-3.223,2.862-3.223c1.711,0,2.827,1.494,2.827,3.187v0.036c0,1.71-1.134,3.223-2.862,3.223
		C519.127,275.639,517.994,274.144,517.994,272.452z M522.495,272.452v-0.036c0-1.26-0.738-2.214-1.674-2.214
		c-0.973,0-1.639,0.99-1.639,2.179v0.036c0,1.261,0.738,2.215,1.674,2.215C521.846,274.63,522.495,273.658,522.495,272.452z"/>
</g>
<g>
	<path fill="#231F20" d="M512.278,380.277l-2.377,0.738l-0.342-1.152l3.079-1.062h1.044v12.694h-1.404V380.277z"/>
	<path fill="#231F20" d="M516.364,390.396l4.572-4.033c1.928-1.729,2.629-2.701,2.629-3.961c0-1.477-1.17-2.413-2.538-2.413
		c-1.44,0-2.377,0.756-3.386,2.161l-1.044-0.756c1.135-1.692,2.323-2.683,4.538-2.683c2.268,0,3.906,1.512,3.906,3.565v0.036
		c0,1.836-0.972,2.971-3.187,4.897l-3.367,2.989h6.681v1.296h-8.805V390.396z"/>
	<path fill="#231F20" d="M527.109,393.061c0.9-0.324,1.278-0.792,1.206-1.566h-0.648v-1.891h1.657v1.621
		c0,1.458-0.63,2.161-1.999,2.467L527.109,393.061z"/>
	<path fill="#231F20" d="M538.469,388.506h-6.645l-0.359-1.026l7.13-8.679h1.242v8.517h1.963v1.188h-1.963v2.989h-1.368V388.506z
		 M538.469,387.317v-6.5l-5.293,6.5H538.469z"/>
	<path fill="#231F20" d="M543.705,382.006v-0.036c0-1.71,1.152-3.223,2.881-3.223c1.692,0,2.827,1.494,2.827,3.187v0.036
		c0,1.71-1.152,3.223-2.863,3.223C544.839,385.193,543.705,383.698,543.705,382.006z M548.224,382.006v-0.036
		c0-1.26-0.757-2.215-1.675-2.215c-0.99,0-1.639,0.991-1.639,2.179v0.036c0,1.26,0.738,2.215,1.675,2.215
		C547.558,384.185,548.224,383.212,548.224,382.006z M554.256,378.891h1.277l-9.236,12.604h-1.296L554.256,378.891z
		 M551.141,388.452v-0.036c0-1.71,1.152-3.223,2.863-3.223c1.71,0,2.826,1.494,2.826,3.187v0.036c0,1.71-1.135,3.223-2.863,3.223
		C552.276,391.639,551.141,390.144,551.141,388.452z M555.643,388.452v-0.036c0-1.26-0.738-2.214-1.676-2.214
		c-0.972,0-1.638,0.99-1.638,2.179v0.036c0,1.261,0.738,2.215,1.675,2.215C554.995,390.63,555.643,389.658,555.643,388.452z"/>
</g>
<g>
	<path fill="#231F20" d="M328.833,554.505h-6.644l-0.36-1.025l7.13-8.68h1.242v8.518h1.963v1.188h-1.963v2.989h-1.368V554.505z
		 M328.833,553.318v-6.5l-5.293,6.5H328.833z"/>
	<path fill="#231F20" d="M333.997,556.396l4.573-4.033c1.927-1.729,2.629-2.701,2.629-3.961c0-1.477-1.17-2.412-2.539-2.412
		c-1.44,0-2.377,0.756-3.385,2.16l-1.044-0.756c1.135-1.693,2.323-2.684,4.538-2.684c2.269,0,3.907,1.513,3.907,3.565v0.036
		c0,1.836-0.972,2.971-3.187,4.897l-3.367,2.989h6.68v1.296h-8.805V556.396z"/>
	<path fill="#231F20" d="M344.743,559.061c0.9-0.324,1.278-0.792,1.207-1.566h-0.648v-1.891h1.657v1.62
		c0,1.459-0.63,2.161-1.999,2.467L344.743,559.061z"/>
	<path fill="#231F20" d="M350.648,546.277l-2.377,0.738l-0.342-1.152l3.079-1.062h1.044v12.694h-1.404V546.277z"/>
	<path fill="#231F20" d="M354.805,548.005v-0.035c0-1.711,1.152-3.223,2.881-3.223c1.692,0,2.827,1.494,2.827,3.186v0.037
		c0,1.71-1.152,3.223-2.863,3.223S354.805,549.699,354.805,548.005z M359.324,548.005v-0.035c0-1.261-0.756-2.215-1.674-2.215
		c-0.99,0-1.639,0.99-1.639,2.178v0.037c0,1.26,0.738,2.215,1.675,2.215C358.658,550.185,359.324,549.212,359.324,548.005z
		 M365.356,544.89h1.278l-9.236,12.604h-1.297L365.356,544.89z M362.241,554.452v-0.036c0-1.711,1.152-3.223,2.863-3.223
		s2.827,1.494,2.827,3.188v0.035c0,1.711-1.134,3.223-2.863,3.223C363.375,557.638,362.241,556.144,362.241,554.452z
		 M366.743,554.452v-0.036c0-1.26-0.738-2.215-1.675-2.215c-0.972,0-1.638,0.99-1.638,2.18v0.035c0,1.261,0.738,2.215,1.674,2.215
		C366.094,556.63,366.743,555.658,366.743,554.452z"/>
</g>
<g>
	<path fill="#231F20" d="M122.215,392.277l-2.377,0.738l-0.342-1.152l3.079-1.062h1.044v12.694h-1.404V392.277z"/>
	<path fill="#231F20" d="M126.552,397.228v-0.035c0-3.529,2.107-6.518,5.348-6.518c3.241,0,5.293,2.953,5.293,6.482v0.036
		c0,3.529-2.088,6.518-5.33,6.518C128.604,403.71,126.552,400.757,126.552,397.228z M135.717,397.228v-0.035
		c0-2.755-1.513-5.222-3.854-5.222c-2.358,0-3.835,2.413-3.835,5.186v0.036c0,2.755,1.512,5.221,3.871,5.221
		S135.717,399.984,135.717,397.228z"/>
	<path fill="#231F20" d="M138.774,405.061c0.9-0.324,1.278-0.792,1.207-1.566h-0.648v-1.891h1.657v1.62
		c0,1.459-0.63,2.161-1.999,2.467L138.774,405.061z"/>
	<path fill="#231F20" d="M143.256,401.46l1.026-0.918c0.972,1.188,2.143,1.871,3.691,1.871c1.53,0,2.755-0.972,2.755-2.447v-0.037
		c0-1.566-1.458-2.43-3.529-2.43h-0.81l-0.288-0.847l3.979-4.483h-6.158v-1.279h8.048v1.044l-3.961,4.394
		c2.196,0.18,4.159,1.242,4.159,3.547v0.036c0,2.25-1.873,3.799-4.213,3.799C145.849,403.71,144.282,402.792,143.256,401.46z"/>
	<path fill="#231F20" d="M154.326,394.006v-0.036c0-1.71,1.152-3.223,2.881-3.223c1.692,0,2.827,1.494,2.827,3.187v0.036
		c0,1.71-1.152,3.223-2.863,3.223S154.326,395.698,154.326,394.006z M158.845,394.006v-0.036c0-1.26-0.756-2.215-1.674-2.215
		c-0.99,0-1.639,0.991-1.639,2.179v0.036c0,1.26,0.738,2.215,1.675,2.215C158.179,396.185,158.845,395.212,158.845,394.006z
		 M164.876,390.891h1.278l-9.236,12.604h-1.297L164.876,390.891z M161.762,400.452v-0.036c0-1.711,1.152-3.223,2.863-3.223
		s2.827,1.494,2.827,3.188v0.035c0,1.711-1.134,3.223-2.863,3.223C162.896,403.638,161.762,402.144,161.762,400.452z
		 M166.263,400.452v-0.036c0-1.26-0.738-2.215-1.675-2.215c-0.972,0-1.638,0.99-1.638,2.18v0.035c0,1.261,0.738,2.215,1.674,2.215
		C165.615,402.63,166.263,401.658,166.263,400.452z"/>
</g>
<g>
	<path fill="#231F20" d="M227.215,264.277l-2.377,0.738l-0.342-1.152l3.079-1.062h1.044v12.694h-1.404V264.277z"/>
	<path fill="#231F20" d="M231.372,272.109v-0.036c0-1.495,1.081-2.557,2.593-3.097c-1.17-0.54-2.16-1.44-2.16-2.899v-0.036
		c0-1.945,1.999-3.331,4.303-3.331s4.303,1.386,4.303,3.331v0.036c0,1.458-0.99,2.359-2.161,2.899
		c1.494,0.558,2.593,1.584,2.593,3.079v0.036c0,2.143-2.053,3.583-4.735,3.583C233.424,275.675,231.372,274.216,231.372,272.109z
		 M239.402,272.074v-0.036c0-1.404-1.458-2.395-3.295-2.395c-1.837,0-3.295,0.99-3.295,2.395v0.036c0,1.278,1.225,2.358,3.295,2.358
		C238.178,274.432,239.402,273.352,239.402,272.074z M238.988,266.168v-0.036c0-1.242-1.243-2.179-2.881-2.179
		c-1.639,0-2.881,0.918-2.881,2.179v0.036c0,1.368,1.278,2.305,2.881,2.305C237.709,268.473,238.988,267.536,238.988,266.168z"/>
	<path fill="#231F20" d="M242.604,277.061c0.9-0.324,1.278-0.792,1.207-1.566h-0.648v-1.891h1.657v1.621
		c0,1.458-0.63,2.161-1.999,2.467L242.604,277.061z"/>
	<path fill="#231F20" d="M247.122,272.109v-0.036c0-1.495,1.08-2.557,2.593-3.097c-1.17-0.54-2.161-1.44-2.161-2.899v-0.036
		c0-1.945,1.999-3.331,4.304-3.331s4.303,1.386,4.303,3.331v0.036c0,1.458-0.99,2.359-2.161,2.899
		c1.494,0.558,2.593,1.584,2.593,3.079v0.036c0,2.143-2.053,3.583-4.735,3.583C249.174,275.675,247.122,274.216,247.122,272.109z
		 M255.152,272.074v-0.036c0-1.404-1.458-2.395-3.295-2.395c-1.837,0-3.295,0.99-3.295,2.395v0.036c0,1.278,1.224,2.358,3.295,2.358
		C253.927,274.432,255.152,273.352,255.152,272.074z M254.738,266.168v-0.036c0-1.242-1.243-2.179-2.881-2.179
		c-1.639,0-2.881,0.918-2.881,2.179v0.036c0,1.368,1.278,2.305,2.881,2.305S254.738,267.536,254.738,266.168z"/>
	<path fill="#231F20" d="M258.461,266.006v-0.036c0-1.71,1.152-3.223,2.881-3.223c1.692,0,2.827,1.494,2.827,3.187v0.036
		c0,1.71-1.152,3.223-2.863,3.223S258.461,267.698,258.461,266.006z M262.98,266.006v-0.036c0-1.26-0.756-2.215-1.674-2.215
		c-0.99,0-1.639,0.991-1.639,2.179v0.036c0,1.26,0.738,2.215,1.675,2.215C262.314,268.185,262.98,267.212,262.98,266.006z
		 M269.012,262.891h1.278l-9.236,12.604h-1.297L269.012,262.891z M265.897,272.452v-0.036c0-1.71,1.152-3.223,2.863-3.223
		s2.827,1.494,2.827,3.187v0.036c0,1.71-1.134,3.223-2.863,3.223C267.032,275.639,265.897,274.144,265.897,272.452z
		 M270.399,272.452v-0.036c0-1.26-0.738-2.214-1.675-2.214c-0.972,0-1.638,0.99-1.638,2.179v0.036c0,1.261,0.738,2.215,1.674,2.215
		C269.75,274.63,270.399,273.658,270.399,272.452z"/>
</g>
<g>
	<path d="M707.693,215.797h1.185l7.059,8.979v-8.979h1.232v11.205h-1.009l-7.234-9.188v9.188h-1.232V215.797z"/>
	<path d="M723.774,226.121c1.136,0,1.937-0.464,2.608-1.168l0.769,0.688c-0.832,0.928-1.841,1.552-3.409,1.552
		c-2.273,0-4.13-1.745-4.13-4.322c0-2.401,1.681-4.321,3.97-4.321c2.449,0,3.857,1.953,3.857,4.386c0,0.112,0,0.24-0.016,0.432
		h-6.562C721.037,225.113,722.317,226.121,723.774,226.121z M726.191,222.375c-0.145-1.504-1.009-2.785-2.642-2.785
		c-1.425,0-2.513,1.185-2.688,2.785H726.191z"/>
	<path d="M729.596,218.726h1.232v1.44c0.544-0.896,1.408-1.616,2.833-1.616c2.001,0,3.169,1.344,3.169,3.313v5.138h-1.232v-4.834
		c0-1.537-0.832-2.497-2.289-2.497c-1.425,0-2.48,1.041-2.48,2.593v4.738h-1.232V218.726z"/>
	<path d="M739.452,215.317h1.232v4.85c0.544-0.896,1.408-1.616,2.833-1.616c2.001,0,3.169,1.344,3.169,3.313v5.138h-1.232v-4.834
		c0-1.537-0.832-2.497-2.289-2.497c-1.425,0-2.48,1.041-2.48,2.593v4.738h-1.232V215.317z"/>
	<path d="M749.178,223.864v-5.138h1.233v4.834c0,1.537,0.832,2.497,2.288,2.497c1.409,0,2.481-1.041,2.481-2.593v-4.738h1.217v8.275
		h-1.217v-1.44c-0.561,0.896-1.408,1.617-2.833,1.617C750.347,227.178,749.178,225.833,749.178,223.864z"/>
	<path d="M759.163,218.726h1.232v1.393c0.544-0.816,1.28-1.568,2.673-1.568c1.345,0,2.209,0.72,2.657,1.648
		c0.592-0.913,1.473-1.648,2.913-1.648c1.904,0,3.073,1.28,3.073,3.329v5.122h-1.232v-4.834c0-1.601-0.801-2.497-2.146-2.497
		c-1.248,0-2.288,0.929-2.288,2.561v4.77h-1.217v-4.866c0-1.552-0.816-2.465-2.129-2.465s-2.305,1.088-2.305,2.609v4.722h-1.232
		V218.726z"/>
	<path d="M773.753,224.601v-0.032c0-1.776,1.441-2.705,3.538-2.705c1.056,0,1.792,0.144,2.528,0.352v-0.256
		c0-1.473-0.896-2.241-2.448-2.241c-0.977,0-1.745,0.24-2.514,0.592l-0.368-1.008c0.913-0.416,1.793-0.704,3.01-0.704
		c1.168,0,2.081,0.32,2.673,0.912c0.576,0.576,0.864,1.377,0.864,2.433v5.058h-1.217v-1.232c-0.576,0.736-1.521,1.409-2.977,1.409
		C775.291,227.178,773.753,226.297,773.753,224.601z M779.836,223.96v-0.769c-0.608-0.176-1.409-0.352-2.417-0.352
		c-1.537,0-2.417,0.672-2.417,1.665v0.032c0,1.04,0.96,1.648,2.081,1.648C778.604,226.185,779.836,225.273,779.836,223.96z"/>
</g>
<g>
	<path d="M703.428,266.451h8.098v1.152h-6.834v3.826h6.115v1.152h-6.115v3.922h6.914v1.152h-8.178V266.451z"/>
	<path d="M713.94,269.38h1.232v1.44c0.543-0.896,1.408-1.616,2.832-1.616c2.002,0,3.17,1.344,3.17,3.313v5.138h-1.232v-4.834
		c0-1.537-0.832-2.497-2.289-2.497c-1.426,0-2.48,1.041-2.48,2.593v4.738h-1.232V269.38z"/>
	<path d="M723.108,276.599l0.623-0.88c0.896,0.672,1.889,1.057,2.865,1.057c0.992,0,1.713-0.512,1.713-1.312v-0.032
		c0-0.832-0.977-1.152-2.064-1.457c-1.297-0.368-2.736-0.816-2.736-2.337v-0.032c0-1.425,1.184-2.369,2.816-2.369
		c1.008,0,2.129,0.352,2.977,0.913l-0.561,0.928c-0.768-0.496-1.648-0.8-2.447-0.8c-0.977,0-1.602,0.512-1.602,1.2v0.032
		c0,0.784,1.023,1.088,2.129,1.425c1.281,0.384,2.656,0.88,2.656,2.369v0.032c0,1.568-1.295,2.481-2.945,2.481
		C725.348,277.815,724.036,277.351,723.108,276.599z"/>
	<path d="M731.795,266.21h1.408v1.361h-1.408V266.21z M731.875,269.38h1.232v8.275h-1.232V269.38z"/>
	<path d="M735.971,269.38h1.232v1.44c0.545-0.896,1.408-1.616,2.834-1.616c2,0,3.168,1.344,3.168,3.313v5.138h-1.232v-4.834
		c0-1.537-0.832-2.497-2.289-2.497c-1.424,0-2.48,1.041-2.48,2.593v4.738h-1.232V269.38z"/>
	<path d="M745.315,273.558v-0.032c0-2.337,1.824-4.321,4.322-4.321c2.48,0,4.305,1.953,4.305,4.29v0.032
		c0,2.337-1.84,4.322-4.338,4.322C747.124,277.847,745.315,275.895,745.315,273.558z M752.678,273.558v-0.032
		c0-1.776-1.33-3.233-3.074-3.233c-1.793,0-3.025,1.457-3.025,3.201v0.032c0,1.777,1.312,3.217,3.059,3.217
		C751.428,276.743,752.678,275.302,752.678,273.558z"/>
	<path d="M761.426,270.468h-1.137v-1.072h1.137v-0.72c0-0.944,0.256-1.665,0.721-2.129c0.416-0.416,1.023-0.64,1.777-0.64
		c0.576,0,0.959,0.064,1.359,0.208v1.072c-0.447-0.128-0.783-0.208-1.199-0.208c-0.961,0-1.441,0.576-1.441,1.761v0.672h2.625v1.056
		h-2.609v7.187h-1.232V270.468z"/>
	<path d="M766.706,274.518v-5.138h1.234v4.834c0,1.537,0.832,2.497,2.287,2.497c1.41,0,2.482-1.041,2.482-2.593v-4.738h1.217v8.275
		h-1.217v-1.44c-0.561,0.896-1.408,1.617-2.834,1.617C767.875,277.832,766.706,276.487,766.706,274.518z"/>
	<path d="M776.69,269.38h1.232v1.44c0.545-0.896,1.408-1.616,2.834-1.616c2,0,3.168,1.344,3.168,3.313v5.138h-1.232v-4.834
		c0-1.537-0.832-2.497-2.289-2.497c-1.424,0-2.48,1.041-2.48,2.593v4.738h-1.232V269.38z"/>
	<path d="M786.065,273.542v-0.032c0-2.705,1.969-4.306,3.953-4.306c1.537,0,2.529,0.832,3.17,1.76v-4.994h1.232v11.685h-1.232
		v-1.665c-0.672,0.992-1.648,1.841-3.17,1.841C788.034,277.832,786.065,276.263,786.065,273.542z M793.237,273.525v-0.032
		c0-1.905-1.457-3.186-2.994-3.186c-1.6,0-2.912,1.185-2.912,3.186v0.032c0,1.953,1.344,3.202,2.912,3.202
		C791.78,276.727,793.237,275.43,793.237,273.525z"/>
	<path d="M796.545,275.254v-0.032c0-1.776,1.441-2.705,3.537-2.705c1.057,0,1.793,0.144,2.529,0.352v-0.256
		c0-1.473-0.896-2.241-2.449-2.241c-0.977,0-1.744,0.24-2.514,0.592l-0.367-1.008c0.912-0.416,1.793-0.704,3.01-0.704
		c1.168,0,2.08,0.32,2.672,0.912c0.576,0.576,0.865,1.377,0.865,2.433v5.058h-1.217v-1.232c-0.576,0.736-1.521,1.409-2.977,1.409
		C798.083,277.832,796.545,276.951,796.545,275.254z M802.627,274.614v-0.769c-0.607-0.176-1.408-0.352-2.416-0.352
		c-1.537,0-2.418,0.672-2.418,1.665v0.032c0,1.04,0.961,1.648,2.082,1.648C801.395,276.839,802.627,275.927,802.627,274.614z"/>
	<path d="M806.434,269.38h1.232v1.393c0.543-0.816,1.279-1.568,2.672-1.568c1.346,0,2.209,0.72,2.658,1.648
		c0.592-0.913,1.473-1.648,2.912-1.648c1.904,0,3.074,1.28,3.074,3.329v5.122h-1.232v-4.834c0-1.601-0.801-2.497-2.146-2.497
		c-1.248,0-2.287,0.929-2.287,2.561v4.77H812.1v-4.866c0-1.552-0.816-2.465-2.129-2.465s-2.305,1.088-2.305,2.609v4.722h-1.232
		V269.38z"/>
	<path d="M825.299,276.775c1.135,0,1.936-0.464,2.607-1.168l0.77,0.688c-0.832,0.928-1.842,1.552-3.41,1.552
		c-2.273,0-4.129-1.745-4.129-4.322c0-2.401,1.68-4.321,3.969-4.321c2.449,0,3.857,1.953,3.857,4.386c0,0.112,0,0.24-0.016,0.432
		h-6.562C822.561,275.767,823.842,276.775,825.299,276.775z M827.715,273.029c-0.145-1.504-1.008-2.785-2.641-2.785
		c-1.426,0-2.514,1.185-2.689,2.785H827.715z"/>
	<path d="M831.122,269.38h1.232v1.44c0.543-0.896,1.408-1.616,2.832-1.616c2.002,0,3.17,1.344,3.17,3.313v5.138h-1.232v-4.834
		c0-1.537-0.832-2.497-2.289-2.497c-1.426,0-2.48,1.041-2.48,2.593v4.738h-1.232V269.38z"/>
	<path d="M841.409,275.462v-4.994h-1.152v-1.088h1.152v-2.497h1.232v2.497h2.625v1.088h-2.625v4.834
		c0,1.008,0.561,1.376,1.393,1.376c0.416,0,0.77-0.08,1.201-0.288v1.057c-0.432,0.224-0.896,0.352-1.488,0.352
		C842.418,277.799,841.409,277.143,841.409,275.462z"/>
	<path d="M846.817,275.254v-0.032c0-1.776,1.441-2.705,3.537-2.705c1.057,0,1.793,0.144,2.529,0.352v-0.256
		c0-1.473-0.896-2.241-2.449-2.241c-0.977,0-1.744,0.24-2.514,0.592l-0.367-1.008c0.912-0.416,1.793-0.704,3.01-0.704
		c1.168,0,2.08,0.32,2.672,0.912c0.576,0.576,0.865,1.377,0.865,2.433v5.058h-1.217v-1.232c-0.576,0.736-1.521,1.409-2.977,1.409
		C848.354,277.832,846.817,276.951,846.817,275.254z M852.899,274.614v-0.769c-0.607-0.176-1.408-0.352-2.416-0.352
		c-1.537,0-2.418,0.672-2.418,1.665v0.032c0,1.04,0.961,1.648,2.082,1.648C851.667,276.839,852.899,275.927,852.899,274.614z"/>
	<path d="M856.817,265.971h1.232v11.685h-1.232V265.971z"/>
	<path d="M865.745,266.21h1.408v1.361h-1.408V266.21z M865.825,269.38h1.232v8.275h-1.232V269.38z"/>
	<path d="M869.92,269.38h1.232v1.44c0.545-0.896,1.408-1.616,2.834-1.616c2,0,3.168,1.344,3.168,3.313v5.138h-1.232v-4.834
		c0-1.537-0.832-2.497-2.289-2.497c-1.424,0-2.48,1.041-2.48,2.593v4.738h-1.232V269.38z"/>
	<path d="M879.264,273.558v-0.032c0-2.337,1.824-4.321,4.242-4.321c1.568,0,2.545,0.656,3.312,1.472l-0.816,0.865
		c-0.656-0.688-1.393-1.249-2.514-1.249c-1.68,0-2.961,1.424-2.961,3.201v0.032c0,1.793,1.312,3.217,3.041,3.217
		c1.057,0,1.873-0.528,2.529-1.232l0.785,0.736c-0.832,0.929-1.826,1.601-3.377,1.601
		C881.088,277.847,879.264,275.878,879.264,273.558z"/>
	<path d="M888.159,273.558v-0.032c0-2.337,1.826-4.321,4.322-4.321c2.48,0,4.307,1.953,4.307,4.29v0.032
		c0,2.337-1.842,4.322-4.338,4.322C889.967,277.847,888.159,275.895,888.159,273.558z M895.522,273.558v-0.032
		c0-1.776-1.328-3.233-3.072-3.233c-1.793,0-3.025,1.457-3.025,3.201v0.032c0,1.777,1.312,3.217,3.057,3.217
		C894.274,276.743,895.522,275.302,895.522,273.558z"/>
	<path d="M899.008,269.38h1.232v1.393c0.543-0.816,1.279-1.568,2.672-1.568c1.346,0,2.209,0.72,2.658,1.648
		c0.592-0.913,1.473-1.648,2.912-1.648c1.904,0,3.074,1.28,3.074,3.329v5.122h-1.232v-4.834c0-1.601-0.801-2.497-2.146-2.497
		c-1.248,0-2.287,0.929-2.287,2.561v4.77h-1.217v-4.866c0-1.552-0.816-2.465-2.129-2.465s-2.305,1.088-2.305,2.609v4.722h-1.232
		V269.38z"/>
	<path d="M914.223,269.38h1.232v1.665c0.672-0.992,1.648-1.84,3.17-1.84c1.984,0,3.953,1.568,3.953,4.29v0.032
		c0,2.705-1.953,4.306-3.953,4.306c-1.537,0-2.529-0.833-3.17-1.761v4.146h-1.232V269.38z M921.315,273.542v-0.032
		c0-1.953-1.346-3.202-2.914-3.202c-1.537,0-2.994,1.297-2.994,3.186v0.032c0,1.921,1.457,3.202,2.994,3.202
		C920.002,276.727,921.315,275.542,921.315,273.542z"/>
	<path d="M924.959,265.971h1.232v11.685h-1.232V265.971z"/>
	<path d="M932.706,276.775c1.135,0,1.936-0.464,2.607-1.168l0.77,0.688c-0.832,0.928-1.842,1.552-3.41,1.552
		c-2.273,0-4.129-1.745-4.129-4.322c0-2.401,1.68-4.321,3.969-4.321c2.449,0,3.857,1.953,3.857,4.386c0,0.112,0,0.24-0.016,0.432
		h-6.562C929.967,275.767,931.249,276.775,932.706,276.775z M935.122,273.029c-0.145-1.504-1.008-2.785-2.641-2.785
		c-1.426,0-2.514,1.185-2.689,2.785H935.122z"/>
	<path d="M938.959,275.462v-4.994h-1.152v-1.088h1.152v-2.497h1.232v2.497h2.625v1.088h-2.625v4.834
		c0,1.008,0.561,1.376,1.393,1.376c0.416,0,0.768-0.08,1.199-0.288v1.057c-0.432,0.224-0.895,0.352-1.488,0.352
		C939.967,277.799,938.959,277.143,938.959,275.462z"/>
	<path d="M944.239,273.558v-0.032c0-2.337,1.824-4.321,4.322-4.321c2.48,0,4.305,1.953,4.305,4.29v0.032
		c0,2.337-1.84,4.322-4.338,4.322C946.047,277.847,944.239,275.895,944.239,273.558z M951.602,273.558v-0.032
		c0-1.776-1.33-3.233-3.074-3.233c-1.793,0-3.025,1.457-3.025,3.201v0.032c0,1.777,1.312,3.217,3.059,3.217
		C950.352,276.743,951.602,275.302,951.602,273.558z"/>
</g>
<rect x="669.733" y="311.399" fill="#DE874C" width="22.553" height="22.553"/>
<g>
	<path d="M703.428,317.104h8.098v1.152h-6.834v3.826h6.115v1.152h-6.115v3.922h6.914v1.152h-8.178V317.104z"/>
	<path d="M713.94,320.033h1.232v1.44c0.543-0.896,1.408-1.616,2.832-1.616c2.002,0,3.17,1.344,3.17,3.313v5.138h-1.232v-4.834
		c0-1.537-0.832-2.497-2.289-2.497c-1.426,0-2.48,1.041-2.48,2.593v4.738h-1.232V320.033z"/>
	<path d="M723.108,327.252l0.623-0.88c0.896,0.672,1.889,1.057,2.865,1.057c0.992,0,1.713-0.512,1.713-1.312v-0.032
		c0-0.832-0.977-1.152-2.064-1.457c-1.297-0.368-2.736-0.816-2.736-2.337v-0.032c0-1.425,1.184-2.369,2.816-2.369
		c1.008,0,2.129,0.352,2.977,0.913l-0.561,0.928c-0.768-0.496-1.648-0.8-2.447-0.8c-0.977,0-1.602,0.512-1.602,1.2v0.032
		c0,0.784,1.023,1.088,2.129,1.425c1.281,0.384,2.656,0.88,2.656,2.369v0.032c0,1.568-1.295,2.481-2.945,2.481
		C725.348,328.469,724.036,328.004,723.108,327.252z"/>
	<path d="M731.795,316.864h1.408v1.361h-1.408V316.864z M731.875,320.033h1.232v8.275h-1.232V320.033z"/>
	<path d="M735.971,320.033h1.232v1.44c0.545-0.896,1.408-1.616,2.834-1.616c2,0,3.168,1.344,3.168,3.313v5.138h-1.232v-4.834
		c0-1.537-0.832-2.497-2.289-2.497c-1.424,0-2.48,1.041-2.48,2.593v4.738h-1.232V320.033z"/>
	<path d="M745.315,324.211v-0.032c0-2.337,1.824-4.321,4.322-4.321c2.48,0,4.305,1.953,4.305,4.29v0.032
		c0,2.337-1.84,4.322-4.338,4.322C747.124,328.5,745.315,326.548,745.315,324.211z M752.678,324.211v-0.032
		c0-1.776-1.33-3.233-3.074-3.233c-1.793,0-3.025,1.457-3.025,3.201v0.032c0,1.777,1.312,3.217,3.059,3.217
		C751.428,327.396,752.678,325.956,752.678,324.211z"/>
	<path d="M761.426,321.122h-1.137v-1.072h1.137v-0.72c0-0.944,0.256-1.665,0.721-2.129c0.416-0.416,1.023-0.64,1.777-0.64
		c0.576,0,0.959,0.064,1.359,0.208v1.072c-0.447-0.128-0.783-0.208-1.199-0.208c-0.961,0-1.441,0.576-1.441,1.761v0.672h2.625v1.056
		h-2.609v7.187h-1.232V321.122z"/>
	<path d="M766.706,325.171v-5.138h1.234v4.834c0,1.537,0.832,2.497,2.287,2.497c1.41,0,2.482-1.041,2.482-2.593v-4.738h1.217v8.275
		h-1.217v-1.44c-0.561,0.896-1.408,1.617-2.834,1.617C767.875,328.485,766.706,327.14,766.706,325.171z"/>
	<path d="M776.69,320.033h1.232v1.44c0.545-0.896,1.408-1.616,2.834-1.616c2,0,3.168,1.344,3.168,3.313v5.138h-1.232v-4.834
		c0-1.537-0.832-2.497-2.289-2.497c-1.424,0-2.48,1.041-2.48,2.593v4.738h-1.232V320.033z"/>
	<path d="M786.065,324.195v-0.032c0-2.705,1.969-4.306,3.953-4.306c1.537,0,2.529,0.832,3.17,1.76v-4.994h1.232v11.685h-1.232
		v-1.665c-0.672,0.992-1.648,1.841-3.17,1.841C788.034,328.485,786.065,326.916,786.065,324.195z M793.237,324.179v-0.032
		c0-1.905-1.457-3.186-2.994-3.186c-1.6,0-2.912,1.185-2.912,3.186v0.032c0,1.953,1.344,3.202,2.912,3.202
		C791.78,327.38,793.237,326.083,793.237,324.179z"/>
	<path d="M796.545,325.908v-0.032c0-1.776,1.441-2.705,3.537-2.705c1.057,0,1.793,0.144,2.529,0.352v-0.256
		c0-1.473-0.896-2.241-2.449-2.241c-0.977,0-1.744,0.24-2.514,0.592l-0.367-1.008c0.912-0.416,1.793-0.704,3.01-0.704
		c1.168,0,2.08,0.32,2.672,0.912c0.576,0.576,0.865,1.377,0.865,2.433v5.058h-1.217v-1.232c-0.576,0.736-1.521,1.409-2.977,1.409
		C798.083,328.485,796.545,327.604,796.545,325.908z M802.627,325.268v-0.769c-0.607-0.176-1.408-0.352-2.416-0.352
		c-1.537,0-2.418,0.672-2.418,1.665v0.032c0,1.04,0.961,1.648,2.082,1.648C801.395,327.492,802.627,326.58,802.627,325.268z"/>
	<path d="M806.434,320.033h1.232v1.393c0.543-0.816,1.279-1.568,2.672-1.568c1.346,0,2.209,0.72,2.658,1.648
		c0.592-0.913,1.473-1.648,2.912-1.648c1.904,0,3.074,1.28,3.074,3.329v5.122h-1.232v-4.834c0-1.601-0.801-2.497-2.146-2.497
		c-1.248,0-2.287,0.929-2.287,2.561v4.77H812.1v-4.866c0-1.552-0.816-2.465-2.129-2.465s-2.305,1.088-2.305,2.609v4.722h-1.232
		V320.033z"/>
	<path d="M825.299,327.428c1.135,0,1.936-0.464,2.607-1.168l0.77,0.688c-0.832,0.928-1.842,1.552-3.41,1.552
		c-2.273,0-4.129-1.745-4.129-4.322c0-2.401,1.68-4.321,3.969-4.321c2.449,0,3.857,1.953,3.857,4.386c0,0.112,0,0.24-0.016,0.432
		h-6.562C822.561,326.42,823.842,327.428,825.299,327.428z M827.715,323.683c-0.145-1.504-1.008-2.785-2.641-2.785
		c-1.426,0-2.514,1.185-2.689,2.785H827.715z"/>
	<path d="M831.122,320.033h1.232v1.44c0.543-0.896,1.408-1.616,2.832-1.616c2.002,0,3.17,1.344,3.17,3.313v5.138h-1.232v-4.834
		c0-1.537-0.832-2.497-2.289-2.497c-1.426,0-2.48,1.041-2.48,2.593v4.738h-1.232V320.033z"/>
	<path d="M841.409,326.116v-4.994h-1.152v-1.088h1.152v-2.497h1.232v2.497h2.625v1.088h-2.625v4.834
		c0,1.008,0.561,1.376,1.393,1.376c0.416,0,0.77-0.08,1.201-0.288v1.057c-0.432,0.224-0.896,0.352-1.488,0.352
		C842.418,328.453,841.409,327.796,841.409,326.116z"/>
	<path d="M846.817,325.908v-0.032c0-1.776,1.441-2.705,3.537-2.705c1.057,0,1.793,0.144,2.529,0.352v-0.256
		c0-1.473-0.896-2.241-2.449-2.241c-0.977,0-1.744,0.24-2.514,0.592l-0.367-1.008c0.912-0.416,1.793-0.704,3.01-0.704
		c1.168,0,2.08,0.32,2.672,0.912c0.576,0.576,0.865,1.377,0.865,2.433v5.058h-1.217v-1.232c-0.576,0.736-1.521,1.409-2.977,1.409
		C848.354,328.485,846.817,327.604,846.817,325.908z M852.899,325.268v-0.769c-0.607-0.176-1.408-0.352-2.416-0.352
		c-1.537,0-2.418,0.672-2.418,1.665v0.032c0,1.04,0.961,1.648,2.082,1.648C851.667,327.492,852.899,326.58,852.899,325.268z"/>
	<path d="M856.817,316.624h1.232v11.685h-1.232V316.624z"/>
	<path d="M865.2,324.211v-0.032c0-2.337,1.826-4.321,4.242-4.321c1.568,0,2.545,0.656,3.312,1.472l-0.814,0.865
		c-0.656-0.688-1.393-1.249-2.514-1.249c-1.682,0-2.961,1.424-2.961,3.201v0.032c0,1.793,1.312,3.217,3.041,3.217
		c1.057,0,1.873-0.528,2.529-1.232l0.783,0.736c-0.832,0.929-1.824,1.601-3.377,1.601C867.026,328.5,865.2,326.532,865.2,324.211z"
		/>
	<path d="M874.096,324.211v-0.032c0-2.337,1.824-4.321,4.322-4.321c2.48,0,4.305,1.953,4.305,4.29v0.032
		c0,2.337-1.84,4.322-4.338,4.322C875.905,328.5,874.096,326.548,874.096,324.211z M881.459,324.211v-0.032
		c0-1.776-1.33-3.233-3.074-3.233c-1.793,0-3.025,1.457-3.025,3.201v0.032c0,1.777,1.312,3.217,3.059,3.217
		C880.209,327.396,881.459,325.956,881.459,324.211z"/>
	<path d="M884.944,320.033h1.232v1.393c0.545-0.816,1.281-1.568,2.674-1.568c1.344,0,2.209,0.72,2.656,1.648
		c0.592-0.913,1.473-1.648,2.914-1.648c1.904,0,3.072,1.28,3.072,3.329v5.122h-1.232v-4.834c0-1.601-0.801-2.497-2.145-2.497
		c-1.248,0-2.289,0.929-2.289,2.561v4.77h-1.217v-4.866c0-1.552-0.816-2.465-2.129-2.465s-2.305,1.088-2.305,2.609v4.722h-1.232
		V320.033z"/>
	<path d="M900.161,320.033h1.232v1.665c0.672-0.992,1.648-1.84,3.168-1.84c1.984,0,3.953,1.568,3.953,4.29v0.032
		c0,2.705-1.951,4.306-3.953,4.306c-1.535,0-2.529-0.833-3.168-1.761v4.146h-1.232V320.033z M907.25,324.195v-0.032
		c0-1.953-1.344-3.202-2.912-3.202c-1.537,0-2.994,1.297-2.994,3.186v0.032c0,1.921,1.457,3.202,2.994,3.202
		C905.938,327.38,907.25,326.196,907.25,324.195z"/>
	<path d="M910.895,316.624h1.232v11.685h-1.232V316.624z"/>
	<path d="M918.641,327.428c1.137,0,1.938-0.464,2.609-1.168l0.768,0.688c-0.832,0.928-1.84,1.552-3.408,1.552
		c-2.273,0-4.131-1.745-4.131-4.322c0-2.401,1.682-4.321,3.971-4.321c2.449,0,3.857,1.953,3.857,4.386c0,0.112,0,0.24-0.016,0.432
		h-6.562C915.905,326.42,917.184,327.428,918.641,327.428z M921.059,323.683c-0.145-1.504-1.01-2.785-2.643-2.785
		c-1.424,0-2.512,1.185-2.688,2.785H921.059z"/>
	<path d="M924.895,326.116v-4.994h-1.152v-1.088h1.152v-2.497h1.232v2.497h2.625v1.088h-2.625v4.834
		c0,1.008,0.561,1.376,1.393,1.376c0.416,0,0.77-0.08,1.201-0.288v1.057c-0.432,0.224-0.896,0.352-1.488,0.352
		C925.905,328.453,924.895,327.796,924.895,326.116z"/>
	<path d="M930.176,324.211v-0.032c0-2.337,1.824-4.321,4.322-4.321c2.48,0,4.305,1.953,4.305,4.29v0.032
		c0,2.337-1.84,4.322-4.338,4.322C931.985,328.5,930.176,326.548,930.176,324.211z M937.54,324.211v-0.032
		c0-1.776-1.33-3.233-3.074-3.233c-1.793,0-3.025,1.457-3.025,3.201v0.032c0,1.777,1.312,3.217,3.059,3.217
		C936.29,327.396,937.54,325.956,937.54,324.211z"/>
</g>
<g>
	<path d="M703.428,367.757h8.098v1.152h-6.834v3.826h6.115v1.152h-6.115v3.922h6.914v1.152h-8.178V367.757z"/>
	<path d="M713.94,370.687h1.232v1.44c0.543-0.896,1.408-1.616,2.832-1.616c2.002,0,3.17,1.344,3.17,3.313v5.138h-1.232v-4.834
		c0-1.537-0.832-2.497-2.289-2.497c-1.426,0-2.48,1.041-2.48,2.593v4.738h-1.232V370.687z"/>
	<path d="M723.108,377.905l0.623-0.88c0.896,0.672,1.889,1.057,2.865,1.057c0.992,0,1.713-0.512,1.713-1.312v-0.032
		c0-0.832-0.977-1.152-2.064-1.457c-1.297-0.368-2.736-0.816-2.736-2.337v-0.032c0-1.425,1.184-2.369,2.816-2.369
		c1.008,0,2.129,0.352,2.977,0.913l-0.561,0.928c-0.768-0.496-1.648-0.8-2.447-0.8c-0.977,0-1.602,0.512-1.602,1.2v0.032
		c0,0.784,1.023,1.088,2.129,1.425c1.281,0.384,2.656,0.88,2.656,2.369v0.032c0,1.568-1.295,2.481-2.945,2.481
		C725.348,379.122,724.036,378.658,723.108,377.905z"/>
	<path d="M731.795,367.517h1.408v1.361h-1.408V367.517z M731.875,370.687h1.232v8.275h-1.232V370.687z"/>
	<path d="M735.971,370.687h1.232v1.44c0.545-0.896,1.408-1.616,2.834-1.616c2,0,3.168,1.344,3.168,3.313v5.138h-1.232v-4.834
		c0-1.537-0.832-2.497-2.289-2.497c-1.424,0-2.48,1.041-2.48,2.593v4.738h-1.232V370.687z"/>
	<path d="M745.315,374.864v-0.032c0-2.337,1.824-4.321,4.322-4.321c2.48,0,4.305,1.953,4.305,4.29v0.032
		c0,2.337-1.84,4.322-4.338,4.322C747.124,379.154,745.315,377.201,745.315,374.864z M752.678,374.864v-0.032
		c0-1.776-1.33-3.233-3.074-3.233c-1.793,0-3.025,1.457-3.025,3.201v0.032c0,1.777,1.312,3.217,3.059,3.217
		C751.428,378.049,752.678,376.609,752.678,374.864z"/>
	<path d="M760.963,370.687h1.232v1.393c0.543-0.816,1.279-1.568,2.672-1.568c1.346,0,2.209,0.72,2.658,1.648
		c0.592-0.913,1.473-1.648,2.912-1.648c1.904,0,3.074,1.28,3.074,3.329v5.122h-1.232v-4.834c0-1.601-0.801-2.497-2.146-2.497
		c-1.248,0-2.287,0.929-2.287,2.561v4.77h-1.217v-4.866c0-1.552-0.816-2.465-2.129-2.465s-2.305,1.088-2.305,2.609v4.722h-1.232
		V370.687z"/>
	<path d="M779.829,378.082c1.135,0,1.936-0.464,2.607-1.168l0.77,0.688c-0.832,0.928-1.842,1.552-3.41,1.552
		c-2.273,0-4.129-1.745-4.129-4.322c0-2.401,1.68-4.321,3.969-4.321c2.449,0,3.857,1.953,3.857,4.386c0,0.112,0,0.24-0.016,0.432
		h-6.562C777.09,377.073,778.372,378.082,779.829,378.082z M782.245,374.336c-0.145-1.504-1.008-2.785-2.641-2.785
		c-1.426,0-2.514,1.185-2.689,2.785H782.245z M780.627,367.117l1.281,0.592l-1.824,1.729h-0.961L780.627,367.117z"/>
	<path d="M785.17,374.848v-0.032c0-2.705,1.969-4.306,3.953-4.306c1.537,0,2.529,0.832,3.17,1.76v-4.994h1.232v11.685h-1.232v-1.665
		c-0.674,0.992-1.65,1.841-3.17,1.841C787.139,379.138,785.17,377.569,785.17,374.848z M792.34,374.832V374.8
		c0-1.905-1.457-3.186-2.992-3.186c-1.602,0-2.914,1.185-2.914,3.186v0.032c0,1.953,1.346,3.202,2.914,3.202
		C790.883,378.034,792.34,376.737,792.34,374.832z"/>
	<path d="M796.305,367.517h1.41v1.361h-1.41V367.517z M796.385,370.687h1.232v8.275h-1.232V370.687z"/>
	<path d="M799.969,374.864v-0.032c0-2.337,1.826-4.321,4.322-4.321c2.48,0,4.307,1.953,4.307,4.29v0.032
		c0,2.337-1.842,4.322-4.338,4.322C801.778,379.154,799.969,377.201,799.969,374.864z M807.333,374.864v-0.032
		c0-1.776-1.328-3.233-3.072-3.233c-1.793,0-3.025,1.457-3.025,3.201v0.032c0,1.777,1.312,3.217,3.057,3.217
		C806.084,378.049,807.333,376.609,807.333,374.864z"/>
	<path d="M815.649,367.517h1.41v1.361h-1.41V367.517z M815.729,370.687h1.232v8.275h-1.232V370.687z"/>
	<path d="M819.827,370.687h1.232v1.44c0.543-0.896,1.408-1.616,2.832-1.616c2.002,0,3.17,1.344,3.17,3.313v5.138h-1.232v-4.834
		c0-1.537-0.832-2.497-2.289-2.497c-1.426,0-2.48,1.041-2.48,2.593v4.738h-1.232V370.687z"/>
	<path d="M829.17,374.864v-0.032c0-2.337,1.824-4.321,4.242-4.321c1.568,0,2.545,0.656,3.312,1.472l-0.816,0.865
		c-0.656-0.688-1.393-1.249-2.514-1.249c-1.68,0-2.961,1.424-2.961,3.201v0.032c0,1.793,1.312,3.217,3.041,3.217
		c1.057,0,1.873-0.528,2.529-1.232l0.785,0.736c-0.832,0.929-1.826,1.601-3.377,1.601
		C830.995,379.154,829.17,377.185,829.17,374.864z"/>
	<path d="M838.065,374.864v-0.032c0-2.337,1.826-4.321,4.322-4.321c2.48,0,4.307,1.953,4.307,4.29v0.032
		c0,2.337-1.842,4.322-4.338,4.322C839.874,379.154,838.065,377.201,838.065,374.864z M845.428,374.864v-0.032
		c0-1.776-1.328-3.233-3.072-3.233c-1.793,0-3.025,1.457-3.025,3.201v0.032c0,1.777,1.312,3.217,3.057,3.217
		C844.18,378.049,845.428,376.609,845.428,374.864z"/>
	<path d="M848.915,370.687h1.232v1.393c0.543-0.816,1.279-1.568,2.672-1.568c1.346,0,2.209,0.72,2.658,1.648
		c0.592-0.913,1.473-1.648,2.912-1.648c1.904,0,3.074,1.28,3.074,3.329v5.122h-1.232v-4.834c0-1.601-0.801-2.497-2.146-2.497
		c-1.248,0-2.287,0.929-2.287,2.561v4.77h-1.217v-4.866c0-1.552-0.816-2.465-2.129-2.465s-2.305,1.088-2.305,2.609v4.722h-1.232
		V370.687z"/>
	<path d="M864.129,370.687h1.232v1.665c0.672-0.992,1.648-1.84,3.17-1.84c1.984,0,3.953,1.568,3.953,4.29v0.032
		c0,2.705-1.953,4.306-3.953,4.306c-1.537,0-2.529-0.833-3.17-1.761v4.146h-1.232V370.687z M871.221,374.848v-0.032
		c0-1.953-1.346-3.202-2.914-3.202c-1.537,0-2.994,1.297-2.994,3.186v0.032c0,1.921,1.457,3.202,2.994,3.202
		C869.909,378.034,871.221,376.849,871.221,374.848z"/>
	<path d="M874.866,367.277h1.232v11.685h-1.232V367.277z"/>
	<path d="M882.612,378.082c1.135,0,1.936-0.464,2.607-1.168l0.77,0.688c-0.832,0.928-1.842,1.552-3.41,1.552
		c-2.273,0-4.129-1.745-4.129-4.322c0-2.401,1.68-4.321,3.969-4.321c2.449,0,3.857,1.953,3.857,4.386c0,0.112,0,0.24-0.016,0.432
		h-6.562C879.874,377.073,881.155,378.082,882.612,378.082z M885.028,374.336c-0.145-1.504-1.008-2.785-2.641-2.785
		c-1.426,0-2.514,1.185-2.689,2.785H885.028z"/>
	<path d="M888.866,376.769v-4.994h-1.152v-1.088h1.152v-2.497h1.232v2.497h2.625v1.088h-2.625v4.834
		c0,1.008,0.561,1.376,1.393,1.376c0.416,0,0.768-0.08,1.199-0.288v1.057c-0.432,0.224-0.895,0.352-1.488,0.352
		C889.874,379.106,888.866,378.45,888.866,376.769z"/>
	<path d="M894.145,374.864v-0.032c0-2.337,1.824-4.321,4.322-4.321c2.48,0,4.305,1.953,4.305,4.29v0.032
		c0,2.337-1.84,4.322-4.338,4.322C895.954,379.154,894.145,377.201,894.145,374.864z M901.508,374.864v-0.032
		c0-1.776-1.33-3.233-3.074-3.233c-1.793,0-3.025,1.457-3.025,3.201v0.032c0,1.777,1.312,3.217,3.059,3.217
		C900.258,378.049,901.508,376.609,901.508,374.864z"/>
</g>
<g>
	<path d="M703.428,418.412h8.098v1.152h-6.834v3.826h6.115v1.152h-6.115v3.922h6.914v1.152h-8.178V418.412z"/>
	<path d="M713.94,421.341h1.232v1.439c0.543-0.896,1.408-1.615,2.832-1.615c2.002,0,3.17,1.344,3.17,3.312v5.139h-1.232v-4.834
		c0-1.537-0.832-2.498-2.289-2.498c-1.426,0-2.48,1.041-2.48,2.594v4.738h-1.232V421.341z"/>
	<path d="M723.108,428.56l0.623-0.881c0.896,0.672,1.889,1.057,2.865,1.057c0.992,0,1.713-0.512,1.713-1.312v-0.032
		c0-0.832-0.977-1.152-2.064-1.456c-1.297-0.369-2.736-0.816-2.736-2.338v-0.031c0-1.425,1.184-2.369,2.816-2.369
		c1.008,0,2.129,0.352,2.977,0.912l-0.561,0.929c-0.768-0.496-1.648-0.8-2.447-0.8c-0.977,0-1.602,0.512-1.602,1.199v0.033
		c0,0.783,1.023,1.088,2.129,1.424c1.281,0.385,2.656,0.881,2.656,2.369v0.032c0,1.568-1.295,2.481-2.945,2.481
		C725.348,429.777,724.036,429.312,723.108,428.56z"/>
	<path d="M731.795,418.171h1.408v1.361h-1.408V418.171z M731.875,421.341h1.232v8.275h-1.232V421.341z"/>
	<path d="M735.971,421.341h1.232v1.439c0.545-0.896,1.408-1.615,2.834-1.615c2,0,3.168,1.344,3.168,3.312v5.139h-1.232v-4.834
		c0-1.537-0.832-2.498-2.289-2.498c-1.424,0-2.48,1.041-2.48,2.594v4.738h-1.232V421.341z"/>
	<path d="M745.315,425.519v-0.033c0-2.336,1.824-4.32,4.322-4.32c2.48,0,4.305,1.952,4.305,4.289v0.031
		c0,2.338-1.84,4.322-4.338,4.322C747.124,429.808,745.315,427.855,745.315,425.519z M752.678,425.519v-0.033
		c0-1.775-1.33-3.232-3.074-3.232c-1.793,0-3.025,1.457-3.025,3.201v0.031c0,1.777,1.312,3.218,3.059,3.218
		C751.428,428.704,752.678,427.263,752.678,425.519z"/>
	<path d="M760.963,421.341h1.232v1.393c0.543-0.816,1.279-1.568,2.672-1.568c1.346,0,2.209,0.72,2.658,1.648
		c0.592-0.913,1.473-1.648,2.912-1.648c1.904,0,3.074,1.279,3.074,3.328v5.123h-1.232v-4.834c0-1.602-0.801-2.498-2.146-2.498
		c-1.248,0-2.287,0.93-2.287,2.562v4.771h-1.217v-4.867c0-1.552-0.816-2.465-2.129-2.465s-2.305,1.089-2.305,2.609v4.723h-1.232
		V421.341z"/>
	<path d="M779.829,428.736c1.135,0,1.936-0.465,2.607-1.168l0.77,0.688c-0.832,0.929-1.842,1.553-3.41,1.553
		c-2.273,0-4.129-1.744-4.129-4.322c0-2.4,1.68-4.32,3.969-4.32c2.449,0,3.857,1.952,3.857,4.385c0,0.112,0,0.24-0.016,0.433h-6.562
		C777.09,427.728,778.372,428.736,779.829,428.736z M782.245,424.99c-0.145-1.504-1.008-2.785-2.641-2.785
		c-1.426,0-2.514,1.186-2.689,2.785H782.245z M780.627,417.771l1.281,0.593l-1.824,1.729h-0.961L780.627,417.771z"/>
	<path d="M785.17,425.502v-0.032c0-2.705,1.969-4.305,3.953-4.305c1.537,0,2.529,0.832,3.17,1.76v-4.994h1.232v11.686h-1.232v-1.665
		c-0.674,0.992-1.65,1.841-3.17,1.841C787.139,429.792,785.17,428.224,785.17,425.502z M792.34,425.486v-0.031
		c0-1.904-1.457-3.186-2.992-3.186c-1.602,0-2.914,1.185-2.914,3.186v0.031c0,1.953,1.346,3.202,2.914,3.202
		C790.883,428.688,792.34,427.391,792.34,425.486z"/>
	<path d="M796.305,418.171h1.41v1.361h-1.41V418.171z M796.385,421.341h1.232v8.275h-1.232V421.341z"/>
	<path d="M799.969,425.519v-0.033c0-2.336,1.826-4.32,4.322-4.32c2.48,0,4.307,1.952,4.307,4.289v0.031
		c0,2.338-1.842,4.322-4.338,4.322C801.778,429.808,799.969,427.855,799.969,425.519z M807.333,425.519v-0.033
		c0-1.775-1.328-3.232-3.072-3.232c-1.793,0-3.025,1.457-3.025,3.201v0.031c0,1.777,1.312,3.218,3.057,3.218
		C806.084,428.704,807.333,427.263,807.333,425.519z"/>
	<path d="M815.106,425.519v-0.033c0-2.336,1.824-4.32,4.242-4.32c1.568,0,2.545,0.656,3.312,1.472l-0.816,0.864
		c-0.656-0.688-1.393-1.248-2.514-1.248c-1.68,0-2.961,1.424-2.961,3.201v0.031c0,1.793,1.312,3.218,3.041,3.218
		c1.057,0,1.873-0.528,2.529-1.232l0.785,0.736c-0.832,0.929-1.826,1.601-3.377,1.601
		C816.93,429.808,815.106,427.839,815.106,425.519z"/>
	<path d="M824,425.519v-0.033c0-2.336,1.826-4.32,4.322-4.32c2.48,0,4.307,1.952,4.307,4.289v0.031c0,2.338-1.842,4.322-4.338,4.322
		C825.809,429.808,824,427.855,824,425.519z M831.364,425.519v-0.033c0-1.775-1.328-3.232-3.072-3.232
		c-1.793,0-3.025,1.457-3.025,3.201v0.031c0,1.777,1.312,3.218,3.057,3.218C830.116,428.704,831.364,427.263,831.364,425.519z"/>
	<path d="M834.85,421.341h1.232v1.393c0.543-0.816,1.279-1.568,2.672-1.568c1.346,0,2.209,0.72,2.658,1.648
		c0.592-0.913,1.473-1.648,2.912-1.648c1.904,0,3.074,1.279,3.074,3.328v5.123h-1.232v-4.834c0-1.602-0.801-2.498-2.146-2.498
		c-1.248,0-2.287,0.93-2.287,2.562v4.771h-1.217v-4.867c0-1.552-0.816-2.465-2.129-2.465s-2.305,1.089-2.305,2.609v4.723h-1.232
		V421.341z"/>
	<path d="M850.065,421.341h1.232v1.664c0.672-0.992,1.648-1.84,3.17-1.84c1.984,0,3.953,1.568,3.953,4.289v0.031
		c0,2.705-1.953,4.307-3.953,4.307c-1.537,0-2.529-0.832-3.17-1.761v4.146h-1.232V421.341z M857.157,425.502v-0.032
		c0-1.953-1.346-3.201-2.914-3.201c-1.537,0-2.994,1.297-2.994,3.186v0.031c0,1.922,1.457,3.202,2.994,3.202
		C855.844,428.688,857.157,427.503,857.157,425.502z"/>
	<path d="M860.801,417.931h1.232v11.686h-1.232V417.931z"/>
	<path d="M868.547,428.736c1.135,0,1.936-0.465,2.607-1.168l0.77,0.688c-0.832,0.929-1.842,1.553-3.41,1.553
		c-2.273,0-4.129-1.744-4.129-4.322c0-2.4,1.68-4.32,3.969-4.32c2.449,0,3.857,1.952,3.857,4.385c0,0.112,0,0.24-0.016,0.433h-6.562
		C865.809,427.728,867.09,428.736,868.547,428.736z M870.963,424.99c-0.145-1.504-1.008-2.785-2.641-2.785
		c-1.426,0-2.514,1.186-2.689,2.785H870.963z"/>
	<path d="M874.801,427.423v-4.994h-1.152v-1.088h1.152v-2.498h1.232v2.498h2.625v1.088h-2.625v4.834
		c0,1.008,0.561,1.377,1.393,1.377c0.416,0,0.768-0.08,1.199-0.289v1.057c-0.432,0.225-0.895,0.353-1.488,0.353
		C875.809,429.76,874.801,429.104,874.801,427.423z"/>
	<path d="M880.081,425.519v-0.033c0-2.336,1.824-4.32,4.322-4.32c2.48,0,4.305,1.952,4.305,4.289v0.031
		c0,2.338-1.84,4.322-4.338,4.322C881.889,429.808,880.081,427.855,880.081,425.519z M887.444,425.519v-0.033
		c0-1.775-1.33-3.232-3.074-3.232c-1.793,0-3.025,1.457-3.025,3.201v0.031c0,1.777,1.312,3.218,3.059,3.218
		C886.194,428.704,887.444,427.263,887.444,425.519z"/>
</g>
<g>
	<path d="M703.428,467.101h8.098v1.152h-6.834v3.826h6.115v1.152h-6.115v3.922h6.914v1.152h-8.178V467.101z"/>
	<path d="M713.94,470.031h1.232v1.439c0.543-0.896,1.408-1.615,2.832-1.615c2.002,0,3.17,1.344,3.17,3.312v5.139h-1.232v-4.834
		c0-1.537-0.832-2.498-2.289-2.498c-1.426,0-2.48,1.041-2.48,2.594v4.738h-1.232V470.031z"/>
	<path d="M723.108,477.25l0.623-0.881c0.896,0.672,1.889,1.057,2.865,1.057c0.992,0,1.713-0.512,1.713-1.312v-0.032
		c0-0.832-0.977-1.152-2.064-1.456c-1.297-0.369-2.736-0.816-2.736-2.338v-0.031c0-1.425,1.184-2.369,2.816-2.369
		c1.008,0,2.129,0.352,2.977,0.912l-0.561,0.929c-0.768-0.496-1.648-0.8-2.447-0.8c-0.977,0-1.602,0.512-1.602,1.199v0.033
		c0,0.783,1.023,1.088,2.129,1.424c1.281,0.385,2.656,0.881,2.656,2.369v0.032c0,1.568-1.295,2.481-2.945,2.481
		C725.348,478.466,724.036,478.001,723.108,477.25z"/>
	<path d="M731.795,466.861h1.408v1.361h-1.408V466.861z M731.875,470.031h1.232v8.275h-1.232V470.031z"/>
	<path d="M735.971,470.031h1.232v1.439c0.545-0.896,1.408-1.615,2.834-1.615c2,0,3.168,1.344,3.168,3.312v5.139h-1.232v-4.834
		c0-1.537-0.832-2.498-2.289-2.498c-1.424,0-2.48,1.041-2.48,2.594v4.738h-1.232V470.031z"/>
	<path d="M745.315,474.208v-0.033c0-2.336,1.824-4.32,4.322-4.32c2.48,0,4.305,1.952,4.305,4.289v0.031
		c0,2.338-1.84,4.322-4.338,4.322C747.124,478.498,745.315,476.544,745.315,474.208z M752.678,474.208v-0.033
		c0-1.775-1.33-3.232-3.074-3.232c-1.793,0-3.025,1.457-3.025,3.201v0.031c0,1.777,1.312,3.218,3.059,3.218
		C751.428,477.393,752.678,475.953,752.678,474.208z"/>
	<path d="M760.274,477.25l0.625-0.881c0.896,0.672,1.889,1.057,2.865,1.057c0.992,0,1.713-0.512,1.713-1.312v-0.032
		c0-0.832-0.977-1.152-2.066-1.456c-1.295-0.369-2.736-0.816-2.736-2.338v-0.031c0-1.425,1.184-2.369,2.816-2.369
		c1.01,0,2.129,0.352,2.979,0.912l-0.561,0.929c-0.768-0.496-1.648-0.8-2.449-0.8c-0.977,0-1.602,0.512-1.602,1.199v0.033
		c0,0.783,1.025,1.088,2.129,1.424c1.281,0.385,2.658,0.881,2.658,2.369v0.032c0,1.568-1.297,2.481-2.945,2.481
		C762.514,478.466,761.202,478.001,760.274,477.25z"/>
	<path d="M768.801,475.168v-5.138h1.234v4.834c0,1.536,0.832,2.496,2.287,2.496c1.41,0,2.482-1.04,2.482-2.593v-4.737h1.217v8.275
		h-1.217v-1.441c-0.561,0.896-1.408,1.617-2.834,1.617C769.971,478.482,768.801,477.137,768.801,475.168z"/>
	<path d="M778.786,470.031h1.232v1.664c0.672-0.992,1.648-1.84,3.17-1.84c1.984,0,3.953,1.568,3.953,4.289v0.031
		c0,2.705-1.953,4.307-3.953,4.307c-1.537,0-2.529-0.832-3.17-1.761v4.146h-1.232V470.031z M785.877,474.192v-0.032
		c0-1.953-1.346-3.201-2.914-3.201c-1.537,0-2.994,1.297-2.994,3.186v0.031c0,1.922,1.457,3.202,2.994,3.202
		C784.565,477.377,785.877,476.193,785.877,474.192z"/>
	<path d="M793.059,477.425c1.137,0,1.938-0.465,2.609-1.168l0.768,0.688c-0.832,0.929-1.84,1.553-3.408,1.553
		c-2.273,0-4.131-1.744-4.131-4.322c0-2.4,1.682-4.32,3.971-4.32c2.449,0,3.857,1.952,3.857,4.385c0,0.112,0,0.24-0.016,0.433
		h-6.562C790.323,476.417,791.602,477.425,793.059,477.425z M795.477,473.679c-0.145-1.504-1.01-2.785-2.643-2.785
		c-1.424,0-2.512,1.186-2.688,2.785H795.477z"/>
	<path d="M798.881,470.031h1.232v2.16c0.609-1.377,1.809-2.369,3.377-2.305v1.328h-0.096c-1.809,0-3.281,1.297-3.281,3.794v3.298
		h-1.232V470.031z"/>
	<path d="M805.393,466.861h1.41v1.361h-1.41V466.861z M805.473,470.031h1.232v8.275h-1.232V470.031z"/>
	<path d="M809.057,474.208v-0.033c0-2.336,1.826-4.32,4.322-4.32c2.48,0,4.307,1.952,4.307,4.289v0.031
		c0,2.338-1.842,4.322-4.338,4.322C810.866,478.498,809.057,476.544,809.057,474.208z M816.42,474.208v-0.033
		c0-1.775-1.328-3.232-3.072-3.232c-1.793,0-3.025,1.457-3.025,3.201v0.031c0,1.777,1.312,3.218,3.057,3.218
		C815.172,477.393,816.42,475.953,816.42,474.208z"/>
	<path d="M819.907,470.031h1.232v2.16c0.607-1.377,1.809-2.369,3.377-2.305v1.328h-0.096c-1.809,0-3.281,1.297-3.281,3.794v3.298
		h-1.232V470.031z"/>
	<path d="M831.217,466.861h1.408v1.361h-1.408V466.861z M831.297,470.031h1.232v8.275h-1.232V470.031z"/>
	<path d="M835.393,470.031h1.232v1.439c0.545-0.896,1.408-1.615,2.834-1.615c2,0,3.168,1.344,3.168,3.312v5.139h-1.232v-4.834
		c0-1.537-0.832-2.498-2.289-2.498c-1.424,0-2.48,1.041-2.48,2.594v4.738h-1.232V470.031z"/>
	<path d="M844.737,474.208v-0.033c0-2.336,1.824-4.32,4.242-4.32c1.568,0,2.545,0.656,3.312,1.472l-0.816,0.864
		c-0.656-0.688-1.393-1.248-2.514-1.248c-1.68,0-2.961,1.424-2.961,3.201v0.031c0,1.793,1.312,3.218,3.041,3.218
		c1.057,0,1.873-0.528,2.529-1.232l0.785,0.736c-0.832,0.929-1.826,1.601-3.377,1.601
		C846.561,478.498,844.737,476.529,844.737,474.208z"/>
	<path d="M853.631,474.208v-0.033c0-2.336,1.826-4.32,4.322-4.32c2.48,0,4.307,1.952,4.307,4.289v0.031
		c0,2.338-1.842,4.322-4.338,4.322C855.44,478.498,853.631,476.544,853.631,474.208z M860.995,474.208v-0.033
		c0-1.775-1.328-3.232-3.072-3.232c-1.793,0-3.025,1.457-3.025,3.201v0.031c0,1.777,1.312,3.218,3.057,3.218
		C859.747,477.393,860.995,475.953,860.995,474.208z"/>
	<path d="M864.481,470.031h1.232v1.393c0.543-0.816,1.279-1.568,2.672-1.568c1.346,0,2.209,0.72,2.658,1.648
		c0.592-0.913,1.473-1.648,2.912-1.648c1.904,0,3.074,1.279,3.074,3.328v5.123h-1.232v-4.834c0-1.602-0.801-2.498-2.146-2.498
		c-1.248,0-2.287,0.93-2.287,2.562v4.771h-1.217v-4.867c0-1.552-0.816-2.465-2.129-2.465s-2.305,1.089-2.305,2.609v4.723h-1.232
		V470.031z"/>
	<path d="M879.696,470.031h1.232v1.664c0.672-0.992,1.648-1.84,3.17-1.84c1.984,0,3.953,1.568,3.953,4.289v0.031
		c0,2.705-1.953,4.307-3.953,4.307c-1.537,0-2.529-0.832-3.17-1.761v4.146h-1.232V470.031z M886.788,474.192v-0.032
		c0-1.953-1.346-3.201-2.914-3.201c-1.537,0-2.994,1.297-2.994,3.186v0.031c0,1.922,1.457,3.202,2.994,3.202
		C885.475,477.377,886.788,476.193,886.788,474.192z"/>
	<path d="M890.432,466.621h1.232v11.686h-1.232V466.621z"/>
	<path d="M898.178,477.425c1.135,0,1.936-0.465,2.607-1.168l0.77,0.688c-0.832,0.929-1.842,1.553-3.41,1.553
		c-2.273,0-4.129-1.744-4.129-4.322c0-2.4,1.68-4.32,3.969-4.32c2.449,0,3.857,1.952,3.857,4.385c0,0.112,0,0.24-0.016,0.433h-6.562
		C895.44,476.417,896.721,477.425,898.178,477.425z M900.594,473.679c-0.145-1.504-1.008-2.785-2.641-2.785
		c-1.426,0-2.514,1.186-2.689,2.785H900.594z"/>
	<path d="M904.432,476.113v-4.994h-1.152v-1.088h1.152v-2.498h1.232v2.498h2.625v1.088h-2.625v4.834
		c0,1.008,0.561,1.377,1.393,1.377c0.416,0,0.768-0.08,1.199-0.289v1.057c-0.432,0.225-0.895,0.353-1.488,0.353
		C905.44,478.45,904.432,477.793,904.432,476.113z"/>
	<path d="M909.711,474.208v-0.033c0-2.336,1.824-4.32,4.322-4.32c2.48,0,4.305,1.952,4.305,4.289v0.031
		c0,2.338-1.84,4.322-4.338,4.322C911.52,478.498,909.711,476.544,909.711,474.208z M917.075,474.208v-0.033
		c0-1.775-1.33-3.232-3.074-3.232c-1.793,0-3.025,1.457-3.025,3.201v0.031c0,1.777,1.312,3.218,3.059,3.218
		C915.825,477.393,917.075,475.953,917.075,474.208z"/>
</g>
<g>
	<path d="M703.428,517.364h8.098v1.152h-6.834v3.825h6.115v1.152h-6.115v3.922h6.914v1.152h-8.178V517.364z"/>
	<path d="M713.94,520.292h1.232v1.441c0.543-0.896,1.408-1.617,2.832-1.617c2.002,0,3.17,1.345,3.17,3.313v5.138h-1.232v-4.834
		c0-1.536-0.832-2.496-2.289-2.496c-1.426,0-2.48,1.04-2.48,2.593v4.737h-1.232V520.292z"/>
	<path d="M723.108,527.511l0.623-0.88c0.896,0.673,1.889,1.057,2.865,1.057c0.992,0,1.713-0.513,1.713-1.312v-0.032
		c0-0.832-0.977-1.152-2.064-1.457c-1.297-0.367-2.736-0.816-2.736-2.336v-0.032c0-1.425,1.184-2.369,2.816-2.369
		c1.008,0,2.129,0.353,2.977,0.913l-0.561,0.928c-0.768-0.496-1.648-0.801-2.447-0.801c-0.977,0-1.602,0.513-1.602,1.201v0.031
		c0,0.785,1.023,1.089,2.129,1.426c1.281,0.383,2.656,0.879,2.656,2.368v0.032c0,1.568-1.295,2.48-2.945,2.48
		C725.348,528.728,724.036,528.264,723.108,527.511z"/>
	<path d="M731.795,517.124h1.408v1.36h-1.408V517.124z M731.875,520.292h1.232v8.275h-1.232V520.292z"/>
	<path d="M735.971,520.292h1.232v1.441c0.545-0.896,1.408-1.617,2.834-1.617c2,0,3.168,1.345,3.168,3.313v5.138h-1.232v-4.834
		c0-1.536-0.832-2.496-2.289-2.496c-1.424,0-2.48,1.04-2.48,2.593v4.737h-1.232V520.292z"/>
	<path d="M745.315,524.47v-0.031c0-2.338,1.824-4.322,4.322-4.322c2.48,0,4.305,1.953,4.305,4.29v0.032
		c0,2.336-1.84,4.321-4.338,4.321C747.124,528.76,745.315,526.808,745.315,524.47z M752.678,524.47v-0.031
		c0-1.777-1.33-3.233-3.074-3.233c-1.793,0-3.025,1.456-3.025,3.201v0.032c0,1.776,1.312,3.217,3.059,3.217
		C751.428,527.656,752.678,526.215,752.678,524.47z"/>
	<path d="M760.274,527.511l0.625-0.88c0.896,0.673,1.889,1.057,2.865,1.057c0.992,0,1.713-0.513,1.713-1.312v-0.032
		c0-0.832-0.977-1.152-2.066-1.457c-1.295-0.367-2.736-0.816-2.736-2.336v-0.032c0-1.425,1.184-2.369,2.816-2.369
		c1.01,0,2.129,0.353,2.979,0.913l-0.561,0.928c-0.768-0.496-1.648-0.801-2.449-0.801c-0.977,0-1.602,0.513-1.602,1.201v0.031
		c0,0.785,1.025,1.089,2.129,1.426c1.281,0.383,2.658,0.879,2.658,2.368v0.032c0,1.568-1.297,2.48-2.945,2.48
		C762.514,528.728,761.202,528.264,760.274,527.511z"/>
	<path d="M768.801,525.431v-5.139h1.234v4.834c0,1.537,0.832,2.498,2.287,2.498c1.41,0,2.482-1.041,2.482-2.594v-4.738h1.217v8.275
		h-1.217v-1.439c-0.561,0.896-1.408,1.616-2.834,1.616C769.971,528.745,768.801,527.4,768.801,525.431z"/>
	<path d="M778.786,520.292h1.232v1.665c0.672-0.992,1.648-1.841,3.17-1.841c1.984,0,3.953,1.568,3.953,4.29v0.032
		c0,2.705-1.953,4.306-3.953,4.306c-1.537,0-2.529-0.833-3.17-1.761v4.146h-1.232V520.292z M785.877,524.455v-0.031
		c0-1.953-1.346-3.202-2.914-3.202c-1.537,0-2.994,1.297-2.994,3.186v0.032c0,1.92,1.457,3.201,2.994,3.201
		C784.565,527.64,785.877,526.456,785.877,524.455z"/>
	<path d="M793.059,527.688c1.137,0,1.938-0.464,2.609-1.169l0.768,0.689c-0.832,0.928-1.84,1.552-3.408,1.552
		c-2.273,0-4.131-1.745-4.131-4.321c0-2.401,1.682-4.322,3.971-4.322c2.449,0,3.857,1.953,3.857,4.387c0,0.111,0,0.239-0.016,0.432
		h-6.562C790.323,526.679,791.602,527.688,793.059,527.688z M795.477,523.943c-0.145-1.505-1.01-2.785-2.643-2.785
		c-1.424,0-2.512,1.184-2.688,2.785H795.477z"/>
	<path d="M798.881,520.292h1.232v2.162c0.609-1.377,1.809-2.369,3.377-2.306v1.329h-0.096c-1.809,0-3.281,1.296-3.281,3.793v3.297
		h-1.232V520.292z"/>
	<path d="M805.393,517.124h1.41v1.36h-1.41V517.124z M805.473,520.292h1.232v8.275h-1.232V520.292z"/>
	<path d="M809.057,524.47v-0.031c0-2.338,1.826-4.322,4.322-4.322c2.48,0,4.307,1.953,4.307,4.29v0.032
		c0,2.336-1.842,4.321-4.338,4.321C810.866,528.76,809.057,526.808,809.057,524.47z M816.42,524.47v-0.031
		c0-1.777-1.328-3.233-3.072-3.233c-1.793,0-3.025,1.456-3.025,3.201v0.032c0,1.776,1.312,3.217,3.057,3.217
		C815.172,527.656,816.42,526.215,816.42,524.47z"/>
	<path d="M819.907,520.292h1.232v2.162c0.607-1.377,1.809-2.369,3.377-2.306v1.329h-0.096c-1.809,0-3.281,1.296-3.281,3.793v3.297
		h-1.232V520.292z"/>
	<path d="M830.672,524.47v-0.031c0-2.338,1.826-4.322,4.242-4.322c1.568,0,2.545,0.656,3.312,1.473l-0.814,0.865
		c-0.656-0.689-1.393-1.249-2.514-1.249c-1.682,0-2.961,1.425-2.961,3.201v0.032c0,1.793,1.312,3.217,3.041,3.217
		c1.057,0,1.873-0.527,2.529-1.232l0.783,0.736c-0.832,0.929-1.824,1.601-3.377,1.601
		C832.499,528.76,830.672,526.792,830.672,524.47z"/>
	<path d="M839.569,524.47v-0.031c0-2.338,1.824-4.322,4.322-4.322c2.48,0,4.305,1.953,4.305,4.29v0.032
		c0,2.336-1.84,4.321-4.338,4.321C841.377,528.76,839.569,526.808,839.569,524.47z M846.932,524.47v-0.031
		c0-1.777-1.33-3.233-3.074-3.233c-1.793,0-3.025,1.456-3.025,3.201v0.032c0,1.776,1.312,3.217,3.059,3.217
		C845.682,527.656,846.932,526.215,846.932,524.47z"/>
	<path d="M850.417,520.292h1.232v1.393c0.545-0.816,1.281-1.568,2.674-1.568c1.344,0,2.209,0.721,2.656,1.648
		c0.592-0.912,1.473-1.648,2.914-1.648c1.904,0,3.072,1.281,3.072,3.33v5.121h-1.232v-4.834c0-1.6-0.801-2.496-2.145-2.496
		c-1.248,0-2.289,0.928-2.289,2.561v4.77h-1.217v-4.865c0-1.553-0.816-2.465-2.129-2.465s-2.305,1.088-2.305,2.609v4.721h-1.232
		V520.292z"/>
	<path d="M865.633,520.292h1.232v1.665c0.672-0.992,1.648-1.841,3.168-1.841c1.984,0,3.953,1.568,3.953,4.29v0.032
		c0,2.705-1.951,4.306-3.953,4.306c-1.535,0-2.529-0.833-3.168-1.761v4.146h-1.232V520.292z M872.723,524.455v-0.031
		c0-1.953-1.344-3.202-2.912-3.202c-1.537,0-2.994,1.297-2.994,3.186v0.032c0,1.92,1.457,3.201,2.994,3.201
		C871.411,527.64,872.723,526.456,872.723,524.455z"/>
	<path d="M876.368,516.884h1.232v11.684h-1.232V516.884z"/>
	<path d="M884.114,527.688c1.137,0,1.938-0.464,2.609-1.169l0.768,0.689c-0.832,0.928-1.84,1.552-3.408,1.552
		c-2.273,0-4.131-1.745-4.131-4.321c0-2.401,1.682-4.322,3.971-4.322c2.449,0,3.857,1.953,3.857,4.387c0,0.111,0,0.239-0.016,0.432
		h-6.562C881.377,526.679,882.657,527.688,884.114,527.688z M886.532,523.943c-0.145-1.505-1.01-2.785-2.643-2.785
		c-1.424,0-2.512,1.184-2.688,2.785H886.532z"/>
	<path d="M890.368,526.375v-4.994h-1.152v-1.089h1.152v-2.496h1.232v2.496h2.625v1.089H891.6v4.834c0,1.009,0.561,1.376,1.393,1.376
		c0.416,0,0.77-0.08,1.201-0.287v1.057c-0.432,0.224-0.896,0.352-1.488,0.352C891.377,528.712,890.368,528.056,890.368,526.375z"/>
	<path d="M895.649,524.47v-0.031c0-2.338,1.824-4.322,4.322-4.322c2.48,0,4.305,1.953,4.305,4.29v0.032
		c0,2.336-1.84,4.321-4.338,4.321C897.458,528.76,895.649,526.808,895.649,524.47z M903.012,524.47v-0.031
		c0-1.777-1.33-3.233-3.074-3.233c-1.793,0-3.025,1.456-3.025,3.201v0.032c0,1.776,1.312,3.217,3.059,3.217
		C901.762,527.656,903.012,526.215,903.012,524.47z"/>
</g>
<g>
	<path d="M703.428,567.624h1.184l7.059,8.979v-8.979h1.232v11.204h-1.008l-7.234-9.188v9.188h-1.232V567.624z"/>
	<path d="M715.235,576.427v-0.032c0-1.776,1.441-2.705,3.537-2.705c1.057,0,1.793,0.144,2.529,0.353v-0.256
		c0-1.473-0.896-2.241-2.449-2.241c-0.977,0-1.744,0.239-2.514,0.592l-0.367-1.009c0.912-0.416,1.793-0.703,3.01-0.703
		c1.168,0,2.08,0.319,2.672,0.912c0.576,0.576,0.865,1.377,0.865,2.433v5.058h-1.217v-1.232c-0.576,0.736-1.521,1.409-2.977,1.409
		C716.772,579.004,715.235,578.125,715.235,576.427z M721.317,575.787v-0.768c-0.607-0.177-1.408-0.353-2.416-0.353
		c-1.537,0-2.418,0.673-2.418,1.665v0.031c0,1.041,0.961,1.648,2.082,1.648C720.084,578.011,721.317,577.099,721.317,575.787z
		 M716.547,569.24c0.32-1.2,0.752-1.68,1.52-1.68c0.721,0,1.602,0.64,2.146,0.64c0.416,0,0.592-0.208,0.832-0.784l0.752,0.208
		c-0.32,1.2-0.752,1.681-1.521,1.681c-0.719,0-1.6-0.641-2.145-0.641c-0.416,0-0.592,0.209-0.832,0.785L716.547,569.24z"/>
	<path d="M724.61,574.73v-0.031c0-2.338,1.826-4.322,4.322-4.322c2.48,0,4.307,1.953,4.307,4.29v0.032
		c0,2.336-1.842,4.321-4.338,4.321C726.418,579.02,724.61,577.068,724.61,574.73z M731.973,574.73v-0.031
		c0-1.777-1.328-3.233-3.072-3.233c-1.793,0-3.025,1.456-3.025,3.201v0.032c0,1.776,1.312,3.217,3.057,3.217
		C730.725,577.916,731.973,576.475,731.973,574.73z"/>
	<path d="M739.571,577.771l0.623-0.88c0.896,0.673,1.889,1.057,2.865,1.057c0.992,0,1.713-0.513,1.713-1.312v-0.032
		c0-0.832-0.977-1.152-2.064-1.457c-1.297-0.367-2.736-0.816-2.736-2.336v-0.032c0-1.425,1.184-2.369,2.816-2.369
		c1.008,0,2.129,0.353,2.977,0.913l-0.561,0.928c-0.768-0.496-1.648-0.801-2.447-0.801c-0.977,0-1.602,0.513-1.602,1.201v0.031
		c0,0.785,1.023,1.089,2.129,1.426c1.281,0.383,2.656,0.879,2.656,2.368v0.032c0,1.568-1.295,2.48-2.945,2.48
		C741.811,578.988,740.499,578.524,739.571,577.771z"/>
	<path d="M747.713,574.73v-0.031c0-2.338,1.826-4.322,4.322-4.322c2.48,0,4.307,1.953,4.307,4.29v0.032
		c0,2.336-1.842,4.321-4.338,4.321C749.522,579.02,747.713,577.068,747.713,574.73z M755.077,574.73v-0.031
		c0-1.777-1.328-3.233-3.072-3.233c-1.793,0-3.025,1.456-3.025,3.201v0.032c0,1.776,1.312,3.217,3.057,3.217
		C753.829,577.916,755.077,576.475,755.077,574.73z"/>
	<path d="M758.434,575.691v-5.139h1.232v4.834c0,1.537,0.832,2.498,2.289,2.498c1.408,0,2.48-1.041,2.48-2.594v-4.738h1.217v8.275
		h-1.217v-1.439c-0.561,0.896-1.408,1.616-2.832,1.616C759.602,579.004,758.434,577.66,758.434,575.691z"/>
	<path d="M769.651,577.244v1.584h-1.232v-11.684h1.232v5.073c0.672-0.992,1.648-1.841,3.17-1.841c1.984,0,3.953,1.568,3.953,4.29
		v0.032c0,2.705-1.953,4.306-3.953,4.306C771.284,579.004,770.292,578.171,769.651,577.244z M775.51,574.714v-0.031
		c0-1.953-1.346-3.202-2.914-3.202c-1.537,0-2.994,1.297-2.994,3.186v0.032c0,1.92,1.457,3.201,2.994,3.201
		C774.198,577.9,775.51,576.715,775.51,574.714z"/>
	<path d="M782.692,577.948c1.137,0,1.938-0.464,2.609-1.169l0.768,0.689c-0.832,0.928-1.84,1.552-3.408,1.552
		c-2.273,0-4.131-1.745-4.131-4.321c0-2.401,1.682-4.322,3.971-4.322c2.449,0,3.857,1.953,3.857,4.387c0,0.111,0,0.239-0.016,0.432
		h-6.562C779.956,576.939,781.235,577.948,782.692,577.948z M785.11,574.203c-0.145-1.505-1.01-2.785-2.643-2.785
		c-1.424,0-2.512,1.184-2.688,2.785H785.11z"/>
	<path d="M793.346,567.383h1.408v1.36h-1.408V567.383z M793.426,570.552h1.232v8.275h-1.232V570.552z"/>
	<path d="M797.522,570.552h1.232v1.441c0.545-0.896,1.408-1.617,2.834-1.617c2,0,3.168,1.345,3.168,3.313v5.138h-1.232v-4.834
		c0-1.536-0.832-2.496-2.289-2.496c-1.424,0-2.48,1.04-2.48,2.593v4.737h-1.232V570.552z"/>
	<path d="M807.842,571.641h-1.137v-1.072h1.137v-0.72c0-0.945,0.256-1.666,0.719-2.129c0.418-0.416,1.025-0.641,1.777-0.641
		c0.576,0,0.961,0.064,1.361,0.208v1.072c-0.449-0.128-0.785-0.208-1.201-0.208c-0.961,0-1.439,0.576-1.439,1.761v0.673h2.625v1.056
		h-2.609v7.187h-1.232V571.641z"/>
	<path d="M812.577,574.73v-0.031c0-2.338,1.826-4.322,4.322-4.322c2.48,0,4.307,1.953,4.307,4.29v0.032
		c0,2.336-1.842,4.321-4.338,4.321C814.385,579.02,812.577,577.068,812.577,574.73z M819.94,574.73v-0.031
		c0-1.777-1.328-3.233-3.072-3.233c-1.793,0-3.025,1.456-3.025,3.201v0.032c0,1.776,1.312,3.217,3.057,3.217
		C818.692,577.916,819.94,576.475,819.94,574.73z"/>
	<path d="M823.426,570.552h1.232v2.162c0.607-1.377,1.809-2.369,3.377-2.306v1.329h-0.096c-1.809,0-3.281,1.296-3.281,3.793v3.297
		h-1.232V570.552z"/>
	<path d="M829.905,570.552h1.232v1.393c0.545-0.816,1.281-1.568,2.674-1.568c1.344,0,2.209,0.721,2.656,1.648
		c0.592-0.912,1.473-1.648,2.914-1.648c1.904,0,3.072,1.281,3.072,3.33v5.121h-1.232v-4.834c0-1.6-0.801-2.496-2.145-2.496
		c-1.248,0-2.289,0.928-2.289,2.561v4.77h-1.217v-4.865c0-1.553-0.816-2.465-2.129-2.465s-2.305,1.088-2.305,2.609v4.721h-1.232
		V570.552z"/>
	<path d="M844.497,576.427v-0.032c0-1.776,1.441-2.705,3.537-2.705c1.057,0,1.793,0.144,2.529,0.353v-0.256
		c0-1.473-0.896-2.241-2.449-2.241c-0.977,0-1.744,0.239-2.514,0.592l-0.367-1.009c0.912-0.416,1.793-0.703,3.01-0.703
		c1.168,0,2.08,0.319,2.672,0.912c0.576,0.576,0.865,1.377,0.865,2.433v5.058h-1.217v-1.232c-0.576,0.736-1.521,1.409-2.977,1.409
		C846.034,579.004,844.497,578.125,844.497,576.427z M850.579,575.787v-0.768c-0.607-0.177-1.408-0.353-2.416-0.353
		c-1.537,0-2.418,0.673-2.418,1.665v0.031c0,1.041,0.961,1.648,2.082,1.648C849.346,578.011,850.579,577.099,850.579,575.787z"/>
	<path d="M854.385,570.552h1.232v2.162c0.607-1.377,1.809-2.369,3.377-2.306v1.329h-0.096c-1.809,0-3.281,1.296-3.281,3.793v3.297
		h-1.232V570.552z"/>
</g>
<rect fill="none" width="992.125" height="706.465"/>
<g>
</g>
<g>
</g>
<g>
</g>
<g>
</g>
<g>
</g>
<g>
</g>
</svg>
