<?xml version="1.0" encoding="utf-8"?>
<!-- Generator: Adobe Illustrator 16.0.0, SVG Export Plug-In . SVG Version: 6.00 Build 0)  -->
<!DOCTYPE svg PUBLIC "-//W3C//DTD SVG 1.1//EN" "http://www.w3.org/Graphics/SVG/1.1/DTD/svg11.dtd">
<svg version="1.1" id="Layer_1" xmlns="http://www.w3.org/2000/svg" xmlns:xlink="http://www.w3.org/1999/xlink" x="0px" y="0px"
	 width="120px" height="120px" viewBox="-30 -30 120 120" enable-background="new -30 -30 120 120" xml:space="preserve">
<circle opacity="0.4" enable-background="new    " cx="30" cy="30" r="60"/>
<g>
	<path fill="#FFFFFF" d="M57.5,0c-1.375,0-3.625,0-5,0h-20C31.125,0,30,1.125,30,2.5S31.125,5,32.5,5h18.965L31.977,24.489
		c-0.973,0.972-0.973,2.562,0,3.536c0.974,0.972,2.562,0.972,3.535,0L55,8.536V27.5c0,1.375,1.125,2.5,2.5,2.5s2.5-1.125,2.5-2.5
		v-20c0-1.375,0-3.625,0-5S58.875,0,57.5,0z"/>
	<path fill="#FFFFFF" d="M27.5,55H8.534l19.905-19.906c0.973-0.972,0.973-2.562,0-3.535c-0.973-0.972-2.562-0.972-3.535,0L5,51.465
		V32.5C5,31.125,3.875,30,2.5,30S0,31.125,0,32.5v20c0,1.375,0,3.625,0,5S1.125,60,2.5,60s3.625,0,5,0h20c1.375,0,2.5-1.125,2.5-2.5
		S28.875,55,27.5,55z"/>
</g>
</svg>
