<?xml version="1.0" encoding="utf-8"?>
<!-- Generator: Adobe Illustrator 16.0.0, SVG Export Plug-In . SVG Version: 6.00 Build 0)  -->
<!DOCTYPE svg PUBLIC "-//W3C//DTD SVG 1.1//EN" "http://www.w3.org/Graphics/SVG/1.1/DTD/svg11.dtd">
<svg version="1.1" id="Layer_1" xmlns="http://www.w3.org/2000/svg" xmlns:xlink="http://www.w3.org/1999/xlink" x="0px" y="0px"
	 width="120px" height="120px" viewBox="-30 -30 120 120" enable-background="new -30 -30 120 120" xml:space="preserve">
<circle opacity="0.4" enable-background="new    " cx="30" cy="30" r="60"/>
<g>
	<path fill="#FFFFFF" d="M32.5,30c1.375,0,3.625,0,5,0h20c1.375,0,2.5-1.125,2.5-2.5S58.875,25,57.5,25H38.535L58.023,5.511
		c0.973-0.972,0.973-2.562,0-3.536c-0.975-0.972-2.562-0.972-3.535,0L35,21.464V2.5C35,1.125,33.875,0,32.5,0S30,1.125,30,2.5v20
		c0,1.375,0,3.625,0,5S31.125,30,32.5,30z"/>
	<path fill="#FFFFFF" d="M2.5,35h18.966L1.56,54.904c-0.972,0.974-0.972,2.562,0,3.537c0.972,0.972,2.563,0.972,3.535,0L25,38.535
		V57.5c0,1.375,1.125,2.5,2.5,2.5s2.5-1.125,2.5-2.5v-20c0-1.375,0-3.625,0-5S28.875,30,27.5,30s-3.625,0-5,0h-20
		C1.125,30,0,31.125,0,32.5S1.125,35,2.5,35z"/>
</g>
</svg>
