<?xml version="1.0" encoding="utf-8"?>
<!-- Generator: Adobe Illustrator 16.0.4, SVG Export Plug-In . SVG Version: 6.00 Build 0)  -->
<!DOCTYPE svg PUBLIC "-//W3C//DTD SVG 1.1//EN" "http://www.w3.org/Graphics/SVG/1.1/DTD/svg11.dtd">
<svg version="1.1" id="Layer_1" xmlns="http://www.w3.org/2000/svg" xmlns:xlink="http://www.w3.org/1999/xlink" x="0px" y="0px"
	 width="35px" height="35px" viewBox="65 32.5 35 35" enable-background="new 65 32.5 35 35" xml:space="preserve">
<path fill="#333333" d="M82.5,32.5C72.835,32.5,65,40.335,65,50s7.835,17.5,17.5,17.5S100,59.665,100,50S92.165,32.5,82.5,32.5z
	 M86.566,59.434c-0.88,0.347-1.582,0.61-2.107,0.793c-0.523,0.183-1.133,0.273-1.826,0.273c-1.066,0-1.896-0.26-2.486-0.78
	c-0.591-0.52-0.887-1.181-0.887-1.979c0-0.312,0.022-0.629,0.067-0.953c0.044-0.325,0.115-0.691,0.213-1.101l1.1-3.894
	c0.101-0.373,0.183-0.727,0.25-1.06c0.065-0.333,0.1-0.638,0.1-0.914c0-0.498-0.103-0.845-0.31-1.04
	c-0.204-0.195-0.596-0.293-1.175-0.293c-0.284,0-0.578,0.044-0.876,0.133s-0.556,0.173-0.769,0.254l0.293-1.2
	c0.723-0.293,1.412-0.544,2.069-0.753c0.659-0.209,1.282-0.313,1.869-0.313c1.06,0,1.875,0.255,2.448,0.766
	c0.576,0.511,0.863,1.176,0.863,1.994c0,0.169-0.021,0.467-0.062,0.894c-0.039,0.426-0.113,0.818-0.22,1.173l-1.098,3.88
	c-0.089,0.312-0.168,0.667-0.24,1.066c-0.071,0.4-0.106,0.702-0.106,0.907c0,0.516,0.115,0.867,0.346,1.054
	c0.231,0.187,0.629,0.279,1.198,0.279c0.267,0,0.569-0.046,0.905-0.14c0.337-0.094,0.581-0.176,0.733-0.247L86.566,59.434z
	 M86.373,43.68c-0.511,0.476-1.126,0.713-1.846,0.713c-0.721,0-1.338-0.238-1.854-0.713c-0.517-0.476-0.773-1.051-0.773-1.727
	s0.257-1.254,0.773-1.733c0.516-0.48,1.133-0.72,1.854-0.72c0.72,0,1.335,0.24,1.846,0.72c0.511,0.479,0.767,1.058,0.767,1.733
	S86.884,43.205,86.373,43.68z"/>
</svg>
