<?xml version="1.0" encoding="utf-8"?>
<!-- Generator: Adobe Illustrator 16.0.4, SVG Export Plug-In . SVG Version: 6.00 Build 0)  -->
<!DOCTYPE svg PUBLIC "-//W3C//DTD SVG 1.1//EN" "http://www.w3.org/Graphics/SVG/1.1/DTD/svg11.dtd">
<svg version="1.1" id="Layer_1" xmlns="http://www.w3.org/2000/svg" xmlns:xlink="http://www.w3.org/1999/xlink" x="0px" y="0px"
	 width="380.16px" height="388.8px" viewBox="769.92 241.92 380.16 388.8" enable-background="new 769.92 241.92 380.16 388.8"
	 xml:space="preserve">
<title>Download s16.5</title>
<desc>Created with Sketch.</desc>
<g>
	<g>
		<path fill="#FFFFFF" d="M939.063,475.109l-80.678-79.222c-32.465-32.58,16.236-81.456,48.701-48.875l0.32,0.325
			c9.996,10.154,18.152,6.814,18.152-7.525v-63.392c0-19.065,15.508-34.501,34.638-34.501h-0.403
			c19.182,0,34.638,15.447,34.638,34.501v63.392c0,14.312,8.131,17.709,18.161,7.525l0.32-0.325
			c32.465-32.581,81.166,16.295,48.701,48.875l-79.576,79.099C970.213,486.741,950.969,486.8,939.063,475.109z M847.65,561.6
			h224.699c4.811,0,8.61-3.832,8.61-8.56v-43.28c0-19.087,15.474-34.56,34.56-34.56c19.088,0,34.561,15.473,34.561,34.56v86.4
			c0,19.087-15.473,34.56-34.561,34.56H804.48c-19.088,0-34.561-15.473-34.561-34.56v-86.4c0-19.087,15.473-34.56,34.561-34.56
			c19.087,0,34.56,15.473,34.56,34.56v43.28C839.04,557.703,842.895,561.6,847.65,561.6z"/>
	</g>
</g>
</svg>
