<?xml version="1.0" encoding="utf-8"?>
<!-- Generator: Adobe Illustrator 16.0.4, SVG Export Plug-In . SVG Version: 6.00 Build 0)  -->
<!DOCTYPE svg PUBLIC "-//W3C//DTD SVG 1.1//EN" "http://www.w3.org/Graphics/SVG/1.1/DTD/svg11.dtd">
<svg version="1.1" id="Layer_1" xmlns="http://www.w3.org/2000/svg" xmlns:xlink="http://www.w3.org/1999/xlink" x="0px" y="0px"
	 width="380.161px" height="388.801px" viewBox="85.919 81.919 380.161 388.801"
	 enable-background="new 85.919 81.919 380.161 388.801" xml:space="preserve">
<title>1Artboard 3</title>
<g>
	<g>
		<path fill="#0095B7" d="M255.062,315.109l-80.678-79.223c-32.465-32.58,16.236-81.455,48.701-48.875l0.32,0.326
			c9.996,10.154,18.151,6.814,18.151-7.525v-63.393c0-19.064,15.509-34.5,34.639-34.5h-0.403c19.182,0,34.638,15.447,34.638,34.5
			v63.393c0,14.312,8.131,17.709,18.161,7.525l0.32-0.326c32.465-32.58,81.166,16.295,48.701,48.875l-79.576,79.1
			C286.213,326.742,266.969,326.8,255.062,315.109z M163.65,401.599h224.698c4.812,0,8.61-3.832,8.61-8.559v-43.281
			c0-19.086,15.474-34.559,34.561-34.559c19.088,0,34.561,15.473,34.561,34.559v86.4c0,19.088-15.473,34.561-34.561,34.561H120.48
			c-19.089,0-34.562-15.473-34.562-34.561v-86.4c0-19.086,15.473-34.559,34.562-34.559c19.086,0,34.56,15.473,34.56,34.559v43.281
			C155.04,397.703,158.895,401.599,163.65,401.599z"/>
	</g>
</g>
</svg>
